<svg width="12" height="9" viewBox="0 0 12 9" fill="none" xmlns="http://www.w3.org/2000/svg">
<path fill-rule="evenodd" clip-rule="evenodd" d="M8.5 0C8.63528 0 8.76478 0.0548126 8.85895 0.151927L11.5256 2.90193C11.7179 3.10017 11.713 3.41672 11.5147 3.60895C11.3165 3.80119 11 3.79632 10.8077 3.59807L9 1.73387L9 8.5C9 8.77614 8.77614 9 8.5 9C8.22386 9 8 8.77614 8 8.5L8 1.73387L6.19228 3.59807C6.00005 3.79632 5.6835 3.80119 5.48526 3.60895C5.28702 3.41672 5.28215 3.10017 5.47438 2.90193L8.14105 0.151927C8.23522 0.0548126 8.36473 0 8.5 0ZM3.16667 2.38419e-07C3.44281 2.38419e-07 3.66667 0.223858 3.66667 0.5L3.66667 7.26614L5.47438 5.40193C5.66662 5.20368 5.98316 5.19881 6.18141 5.39105C6.37965 5.58329 6.38452 5.89983 6.19228 6.09807L3.52562 8.84807C3.43145 8.94519 3.30194 9 3.16667 9C3.03139 9 2.90189 8.94519 2.80772 8.84807L0.14105 6.09807C-0.0511852 5.89983 -0.0463153 5.58329 0.151927 5.39105C0.35017 5.19881 0.666715 5.20368 0.858951 5.40193L2.66667 7.26614L2.66667 0.5C2.66667 0.223858 2.89052 2.38419e-07 3.16667 2.38419e-07Z" fill="#8A8AA3"/>
</svg>
