<svg width="20" height="22" viewBox="0 0 20 22" fill="none" xmlns="http://www.w3.org/2000/svg">
<path fill-rule="evenodd" clip-rule="evenodd" d="M9.75842 1.5C8.51578 1.5 7.50842 2.50736 7.50842 3.75V4.00988C8.06549 3.99999 8.67674 3.99999 9.34756 4H10.1693C10.8401 3.99999 11.4513 3.99999 12.0084 4.00988V3.75C12.0084 2.50736 11.0011 1.5 9.75842 1.5ZM13.5084 4.07793V3.75C13.5084 1.67893 11.8295 0 9.75842 0C7.68735 0 6.00842 1.67893 6.00842 3.75V4.07793C5.86569 4.09021 5.72777 4.10444 5.59449 4.1209C4.58452 4.24569 3.7519 4.50783 3.0446 5.09483C2.33731 5.68183 1.92622 6.45189 1.61744 7.42156C1.31821 8.36128 1.0917 9.5694 0.806958 11.0881L0.786277 11.1984C0.384482 13.3412 0.0678369 15.0299 0.00972789 16.3612C-0.0498334 17.7258 0.15318 18.856 0.922955 19.7835C1.69273 20.711 2.76615 21.1189 4.11835 21.3118C5.43756 21.5 7.15567 21.5 9.3358 21.5H10.181C12.3611 21.5 14.0793 21.5 15.3985 21.3118C16.7507 21.1189 17.8241 20.711 18.5939 19.7835C19.3637 18.856 19.5667 17.7258 19.5071 16.3612C19.449 15.0299 19.1324 13.3412 18.7306 11.1984L18.7099 11.0881C18.4251 9.56942 18.1986 8.36129 17.8994 7.42156C17.5906 6.45189 17.1795 5.68183 16.4722 5.09483C15.7649 4.50783 14.9323 4.24569 13.9223 4.1209C13.7891 4.10444 13.6511 4.09021 13.5084 4.07793ZM5.77842 5.60959C4.92288 5.71529 4.40616 5.91413 4.00256 6.24909C3.59895 6.58406 3.30829 7.05528 3.04673 7.87669C2.77887 8.71788 2.56812 9.83464 2.272 11.4139C1.85628 13.6311 1.5612 15.2147 1.5083 16.4266C1.45631 17.6179 1.64737 18.3076 2.07722 18.8256C2.50707 19.3435 3.14981 19.6584 4.33023 19.8268C5.53114 19.9982 7.14201 20 9.39783 20H10.119C12.3748 20 13.9857 19.9982 15.1866 19.8268C16.367 19.6584 17.0098 19.3435 17.4396 18.8256C17.8695 18.3076 18.0605 17.6179 18.0085 16.4266C17.9556 15.2147 17.6606 13.6311 17.2448 11.4139C16.9487 9.83464 16.738 8.71788 16.4701 7.87669C16.2085 7.05528 15.9179 6.58406 15.5143 6.24909C15.1107 5.91413 14.594 5.71529 13.7384 5.60959C12.8623 5.50133 11.7258 5.5 10.119 5.5H9.39783C7.79104 5.5 6.65457 5.50133 5.77842 5.60959Z" fill="#8A8AA3"/>
</svg>
