<svg width="32" height="32" viewBox="0 0 32 32" fill="none" xmlns="http://www.w3.org/2000/svg">
<path opacity="0.5" fill-rule="evenodd" clip-rule="evenodd" d="M13.037 28H18.963C23.1243 28 25.205 28 26.6997 27.0195C27.3467 26.595 27.9023 26.0495 28.3346 25.4142C29.3333 23.9467 29.3333 21.9039 29.3333 17.8182C29.3333 13.7325 29.3333 11.6896 28.3346 10.2221C27.9023 9.58685 27.3467 9.04139 26.6997 8.6169C25.7393 7.98685 24.5369 7.76164 22.696 7.68114C21.8175 7.68114 21.0612 7.02757 20.8889 6.18182C20.6305 4.91318 19.4959 4 18.1782 4H13.8218C12.5041 4 11.3695 4.91318 11.1111 6.18182C10.9388 7.02757 10.1825 7.68114 9.30398 7.68114C7.4631 7.76164 6.26073 7.98685 5.30031 8.6169C4.65326 9.04139 4.0977 9.58685 3.66536 10.2221C2.66666 11.6896 2.66666 13.7325 2.66666 17.8182C2.66666 21.9039 2.66666 23.9467 3.66536 25.4142C4.0977 26.0495 4.65326 26.595 5.30031 27.0195C6.79497 28 8.87566 28 13.037 28ZM21.3333 17.3333C21.3333 20.2789 18.9455 22.6667 16 22.6667C13.0545 22.6667 10.6667 20.2789 10.6667 17.3333C10.6667 14.3878 13.0545 12 16 12C18.9455 12 21.3333 14.3878 21.3333 17.3333ZM24 12.3333C23.4477 12.3333 23 12.781 23 13.3333C23 13.8856 23.4477 14.3333 24 14.3333H25.3333C25.8856 14.3333 26.3333 13.8856 26.3333 13.3333C26.3333 12.781 25.8856 12.3333 25.3333 12.3333H24Z" fill="#8A8AA3"/>
<path fill-rule="evenodd" clip-rule="evenodd" d="M21.3333 17.3333C21.3333 20.2789 18.9455 22.6667 16 22.6667C13.0545 22.6667 10.6667 20.2789 10.6667 17.3333C10.6667 14.3878 13.0545 12 16 12C18.9455 12 21.3333 14.3878 21.3333 17.3333ZM17 14.6667C17 14.1144 16.5523 13.6667 16 13.6667C15.4477 13.6667 15 14.1144 15 14.6667V16.3333H13.3333C12.781 16.3333 12.3333 16.781 12.3333 17.3333C12.3333 17.8856 12.781 18.3333 13.3333 18.3333H15V20C15 20.5523 15.4477 21 16 21C16.5523 21 17 20.5523 17 20V18.3333H18.6667C19.2189 18.3333 19.6667 17.8856 19.6667 17.3333C19.6667 16.781 19.2189 16.3333 18.6667 16.3333H17V14.6667Z" fill="#8A8AA3"/>
<path d="M24 12.3334C23.4477 12.3334 23 12.7811 23 13.3334C23 13.8857 23.4477 14.3334 24 14.3334H25.3333C25.8856 14.3334 26.3333 13.8857 26.3333 13.3334C26.3333 12.7811 25.8856 12.3334 25.3333 12.3334H24Z" fill="#8A8AA3"/>
</svg>
