<svg width="32" height="32" viewBox="0 0 32 32" fill="none" xmlns="http://www.w3.org/2000/svg">
<path fill-rule="evenodd" clip-rule="evenodd" d="M13.3425 5.02892L5.34253 12.14C4.48858 12.8991 3.99999 13.9871 3.99999 15.1297V28.3334H2.66666C2.11437 28.3334 1.66666 28.7811 1.66666 29.3334C1.66666 29.8857 2.11437 30.3334 2.66666 30.3334H29.3333C29.8856 30.3334 30.3333 29.8857 30.3333 29.3334C30.3333 28.7811 29.8856 28.3334 29.3333 28.3334H28V15.1297C28 13.9871 27.5114 12.8991 26.6574 12.14L18.6574 5.02892C17.1419 3.68177 14.8581 3.68177 13.3425 5.02892ZM13.3333 11.0001C12.781 11.0001 12.3333 11.4478 12.3333 12.0001C12.3333 12.5524 12.781 13.0001 13.3333 13.0001H18.6667C19.2189 13.0001 19.6667 12.5524 19.6667 12.0001C19.6667 11.4478 19.2189 11.0001 18.6667 11.0001H13.3333ZM18.736 15.0001C19.934 15 20.9329 15 21.726 15.1066C22.563 15.2192 23.3188 15.4667 23.926 16.074C24.5333 16.6813 24.7809 17.437 24.8934 18.2741C25.0001 19.0671 25 20.0661 25 21.2641L25 28.3334H23H8.99999H6.99999L6.99999 21.2641C6.99995 20.0661 6.99992 19.0671 7.10654 18.2741C7.21908 17.437 7.46664 16.6813 8.07393 16.074C8.68122 15.4667 9.43696 15.2192 10.274 15.1066C11.0671 15 12.066 15 13.264 15.0001H18.736Z" fill="#8A8AA3"/>
<path opacity="0.5" d="M18.736 15H13.264H13.264C12.066 15 11.0671 14.9999 10.274 15.1066C9.43697 15.2191 8.68124 15.4667 8.07395 16.0739C7.46665 16.6812 7.21909 17.437 7.10655 18.274C6.99993 19.067 6.99996 20.066 7 21.2639V21.2639L7 28.3333H25L25 21.264C25 20.0661 25.0001 19.0671 24.8935 18.274C24.7809 17.437 24.5334 16.6812 23.9261 16.0739C23.3188 15.4667 22.563 15.2191 21.726 15.1066C20.933 14.9999 19.934 15 18.736 15H18.736Z" fill="#8A8AA3"/>
<path d="M12 19.6665C11.4477 19.6665 11 20.1142 11 20.6665C11 21.2188 11.4477 21.6665 12 21.6665H20C20.5523 21.6665 21 21.2188 21 20.6665C21 20.1142 20.5523 19.6665 20 19.6665H12Z" fill="#8A8AA3"/>
<path d="M12 23.6665C11.4477 23.6665 11 24.1142 11 24.6665C11 25.2188 11.4477 25.6665 12 25.6665H20C20.5523 25.6665 21 25.2188 21 24.6665C21 24.1142 20.5523 23.6665 20 23.6665H12Z" fill="#8A8AA3"/>
</svg>
