<svg width="16" height="16" viewBox="0 0 16 16" fill="none" xmlns="http://www.w3.org/2000/svg">
<path fill-rule="evenodd" clip-rule="evenodd" d="M4.29866 1.16675C3.69968 1.16673 3.20019 1.16671 2.80367 1.22002C2.38514 1.27629 2.00728 1.40007 1.70363 1.70372C1.39998 2.00737 1.2762 2.38523 1.21993 2.80376C1.16662 3.20028 1.16664 3.69975 1.16666 4.29873V4.36808C1.16664 4.96706 1.16662 5.46655 1.21993 5.86307C1.2762 6.2816 1.39998 6.65947 1.70363 6.96311C2.00728 7.26676 2.38514 7.39054 2.80367 7.44681C3.20019 7.50012 3.69966 7.5001 4.29864 7.50008H4.36799C4.96697 7.5001 5.46646 7.50012 5.86298 7.44681C6.28151 7.39054 6.65937 7.26676 6.96302 6.96311C7.26667 6.65947 7.39045 6.2816 7.44672 5.86307C7.50003 5.46655 7.50001 4.96708 7.49999 4.3681V4.29875C7.50001 3.69978 7.50003 3.20028 7.44672 2.80376C7.39045 2.38523 7.26667 2.00737 6.96302 1.70372C6.65937 1.40007 6.28151 1.27629 5.86298 1.22002C5.46646 1.16671 4.96699 1.16673 4.36801 1.16675H4.29866ZM2.41074 2.41083C2.49761 2.32395 2.62928 2.25247 2.93692 2.21111C3.25894 2.16781 3.69065 2.16675 4.33333 2.16675C4.976 2.16675 5.40771 2.16781 5.72973 2.21111C6.03737 2.25247 6.16904 2.32395 6.25591 2.41083C6.34279 2.49771 6.41427 2.62937 6.45563 2.93701C6.49893 3.25904 6.49999 3.69074 6.49999 4.33342C6.49999 4.97609 6.49893 5.4078 6.45563 5.72982C6.41427 6.03746 6.34279 6.16913 6.25591 6.25601C6.16904 6.34288 6.03737 6.41437 5.72973 6.45573C5.40771 6.49902 4.976 6.50008 4.33333 6.50008C3.69065 6.50008 3.25894 6.49902 2.93692 6.45573C2.62928 6.41437 2.49761 6.34288 2.41074 6.25601C2.32386 6.16913 2.25238 6.03746 2.21102 5.72982C2.16772 5.4078 2.16666 4.97609 2.16666 4.33342C2.16666 3.69074 2.16772 3.25904 2.21102 2.93701C2.25238 2.62937 2.32386 2.49771 2.41074 2.41083Z" fill="#8A8AA3"/>
<path fill-rule="evenodd" clip-rule="evenodd" d="M11.632 8.50008C11.033 8.50006 10.5335 8.50005 10.137 8.55336C9.71848 8.60963 9.34061 8.73341 9.03696 9.03705C8.73332 9.3407 8.60954 9.71857 8.55327 10.1371C8.49996 10.5336 8.49997 11.0331 8.49999 11.6321V11.7014C8.49997 12.3004 8.49996 12.7999 8.55327 13.1964C8.60954 13.6149 8.73332 13.9928 9.03696 14.2964C9.34061 14.6001 9.71848 14.7239 10.137 14.7801C10.5335 14.8335 11.033 14.8334 11.6319 14.8334H11.7013C12.3003 14.8334 12.7998 14.8335 13.1963 14.7801C13.6148 14.7239 13.9927 14.6001 14.2964 14.2964C14.6 13.9928 14.7238 13.6149 14.7801 13.1964C14.8334 12.7999 14.8333 12.3004 14.8333 11.7015V11.6321C14.8333 11.0331 14.8334 10.5336 14.7801 10.1371C14.7238 9.71857 14.6 9.3407 14.2964 9.03705C13.9927 8.73341 13.6148 8.60963 13.1963 8.55336C12.7998 8.50005 12.3003 8.50006 11.7013 8.50008H11.632ZM9.74407 9.74416C9.83095 9.65728 9.96261 9.5858 10.2703 9.54444C10.5923 9.50115 11.024 9.50008 11.6667 9.50008C12.3093 9.50008 12.741 9.50115 13.0631 9.54444C13.3707 9.5858 13.5024 9.65728 13.5892 9.74416C13.6761 9.83104 13.7476 9.9627 13.789 10.2703C13.8323 10.5924 13.8333 11.0241 13.8333 11.6668C13.8333 12.3094 13.8323 12.7411 13.789 13.0632C13.7476 13.3708 13.6761 13.5025 13.5892 13.5893C13.5024 13.6762 13.3707 13.7477 13.0631 13.7891C12.741 13.8324 12.3093 13.8334 11.6667 13.8334C11.024 13.8334 10.5923 13.8324 10.2703 13.7891C9.96261 13.7477 9.83095 13.6762 9.74407 13.5893C9.65719 13.5025 9.58571 13.3708 9.54435 13.0632C9.50105 12.7411 9.49999 12.3094 9.49999 11.6668C9.49999 11.0241 9.50105 10.5924 9.54435 10.2703C9.58571 9.9627 9.65719 9.83104 9.74407 9.74416Z" fill="#8A8AA3"/>
<path fill-rule="evenodd" clip-rule="evenodd" d="M4.29866 8.50008H4.36799C4.96698 8.50006 5.46646 8.50005 5.86298 8.55336C6.28151 8.60963 6.65937 8.73341 6.96302 9.03705C7.26667 9.3407 7.39045 9.71857 7.44672 10.1371C7.50003 10.5336 7.50001 11.0331 7.49999 11.6321V11.7014C7.50001 12.3004 7.50003 12.7999 7.44672 13.1964C7.39045 13.6149 7.26667 13.9928 6.96302 14.2964C6.65937 14.6001 6.28151 14.7239 5.86298 14.7801C5.46647 14.8335 4.967 14.8334 4.36803 14.8334H4.29866C3.69969 14.8334 3.20018 14.8335 2.80367 14.7801C2.38514 14.7239 2.00728 14.6001 1.70363 14.2964C1.39998 13.9928 1.2762 13.6149 1.21993 13.1964C1.16662 12.7999 1.16664 12.3004 1.16666 11.7014V11.6321C1.16664 11.0331 1.16662 10.5336 1.21993 10.1371C1.2762 9.71857 1.39998 9.3407 1.70363 9.03705C2.00728 8.73341 2.38514 8.60963 2.80367 8.55336C3.20019 8.50005 3.69967 8.50006 4.29866 8.50008ZM2.93692 9.54444C2.62928 9.5858 2.49761 9.65728 2.41074 9.74416C2.32386 9.83104 2.25238 9.9627 2.21102 10.2703C2.16772 10.5924 2.16666 11.0241 2.16666 11.6668C2.16666 12.3094 2.16772 12.7411 2.21102 13.0632C2.25238 13.3708 2.32386 13.5025 2.41074 13.5893C2.49761 13.6762 2.62928 13.7477 2.93692 13.7891C3.25894 13.8324 3.69065 13.8334 4.33333 13.8334C4.976 13.8334 5.40771 13.8324 5.72973 13.7891C6.03737 13.7477 6.16904 13.6762 6.25591 13.5893C6.34279 13.5025 6.41427 13.3708 6.45563 13.0632C6.49893 12.7411 6.49999 12.3094 6.49999 11.6668C6.49999 11.0241 6.49893 10.5924 6.45563 10.2703C6.41427 9.9627 6.34279 9.83104 6.25591 9.74416C6.16904 9.65728 6.03737 9.5858 5.72973 9.54444C5.40771 9.50115 4.976 9.50008 4.33333 9.50008C3.69065 9.50008 3.25894 9.50115 2.93692 9.54444Z" fill="#8A8AA3"/>
<path fill-rule="evenodd" clip-rule="evenodd" d="M11.632 1.16675C11.033 1.16673 10.5335 1.16671 10.137 1.22002C9.71848 1.27629 9.34061 1.40007 9.03696 1.70372C8.73332 2.00737 8.60954 2.38523 8.55327 2.80376C8.49996 3.20028 8.49997 3.69976 8.49999 4.29875V4.36808C8.49997 4.96707 8.49996 5.46655 8.55327 5.86307C8.60954 6.2816 8.73332 6.65947 9.03696 6.96311C9.34061 7.26676 9.71848 7.39054 10.137 7.44681C10.5335 7.50012 11.033 7.5001 11.632 7.50008H11.7013C12.3003 7.5001 12.7998 7.50012 13.1963 7.44681C13.6148 7.39054 13.9927 7.26676 14.2964 6.96311C14.6 6.65947 14.7238 6.2816 14.7801 5.86307C14.8334 5.46655 14.8333 4.96708 14.8333 4.3681V4.29875C14.8333 3.69978 14.8334 3.20028 14.7801 2.80376C14.7238 2.38523 14.6 2.00737 14.2964 1.70372C13.9927 1.40007 13.6148 1.27629 13.1963 1.22002C12.7998 1.16671 12.3003 1.16673 11.7013 1.16675H11.632ZM9.74407 2.41083C9.83095 2.32395 9.96261 2.25247 10.2703 2.21111C10.5923 2.16781 11.024 2.16675 11.6667 2.16675C12.3093 2.16675 12.741 2.16781 13.0631 2.21111C13.3707 2.25247 13.5024 2.32395 13.5892 2.41083C13.6761 2.49771 13.7476 2.62937 13.789 2.93701C13.8323 3.25904 13.8333 3.69074 13.8333 4.33342C13.8333 4.97609 13.8323 5.4078 13.789 5.72982C13.7476 6.03746 13.6761 6.16913 13.5892 6.25601C13.5024 6.34288 13.3707 6.41437 13.0631 6.45573C12.741 6.49902 12.3093 6.50008 11.6667 6.50008C11.024 6.50008 10.5923 6.49902 10.2703 6.45573C9.96261 6.41437 9.83095 6.34288 9.74407 6.25601C9.65719 6.16913 9.58571 6.03746 9.54435 5.72982C9.50105 5.4078 9.49999 4.97609 9.49999 4.33342C9.49999 3.69074 9.50105 3.25904 9.54435 2.93701C9.58571 2.62937 9.65719 2.49771 9.74407 2.41083Z" fill="#8A8AA3"/>
</svg>
