<svg width="22" height="22" viewBox="0 0 22 22" fill="none" xmlns="http://www.w3.org/2000/svg">
<path d="M7.75 16C7.33579 16 7 16.3358 7 16.75C7 17.1642 7.33579 17.5 7.75 17.5H13.75C14.1642 17.5 14.5 17.1642 14.5 16.75C14.5 16.3358 14.1642 16 13.75 16H7.75Z" fill="#8A8AA3"/>
<path fill-rule="evenodd" clip-rule="evenodd" d="M10.75 0C10.0419 0 9.39853 0.20282 8.70055 0.54224C8.02585 0.870345 7.24642 1.35409 6.27286 1.95832L4.20628 3.2409C3.28509 3.81261 2.54744 4.2704 1.9789 4.70581C1.39015 5.15669 0.937948 5.61589 0.61131 6.21263C0.285355 6.80812 0.138567 7.44174 0.06819 8.1907C-1.42679e-05 8.91654 -7.77076e-06 9.80411 2.67212e-07 10.9172V12.5299C-1.37312e-05 14.4337 -2.47508e-05 15.9366 0.152703 17.1116C0.309372 18.317 0.638563 19.2901 1.38236 20.0594C2.12958 20.8324 3.08046 21.1777 4.25761 21.3414C5.39849 21.5 6.85556 21.5 8.69185 21.5H12.8081C14.6444 21.5 16.1015 21.5 17.2424 21.3414C18.4195 21.1777 19.3704 20.8324 20.1176 20.0594C20.8614 19.2901 21.1906 18.317 21.3473 17.1116C21.5 15.9366 21.5 14.4338 21.5 12.5299V10.9172C21.5 9.80414 21.5 8.91652 21.4318 8.1907C21.3614 7.44174 21.2146 6.80812 20.8887 6.21263C20.5621 5.61589 20.1099 5.15669 19.5211 4.70581C18.9526 4.2704 18.2149 3.81262 17.2937 3.24091L15.2271 1.95831C14.2536 1.35409 13.4741 0.870342 12.7994 0.54224C12.1015 0.202819 11.4581 0 10.75 0ZM7.02953 3.25412C8.04529 2.62371 8.7595 2.18153 9.35654 1.8912C9.93823 1.60833 10.3502 1.5 10.75 1.5C11.1498 1.5 11.5618 1.60833 12.1435 1.89119C12.7405 2.18153 13.4547 2.62371 14.4705 3.25412L16.4705 4.49537C17.4313 5.09169 18.1059 5.51135 18.6091 5.8967C19.0987 6.27164 19.3803 6.58106 19.5729 6.93285C19.7662 7.28589 19.879 7.69865 19.9384 8.33104C19.9992 8.97859 20 9.79582 20 10.9539V12.475C20 14.4459 19.9985 15.8512 19.8598 16.9183C19.7236 17.9663 19.467 18.5744 19.0392 19.0169C18.6149 19.4558 18.0371 19.7164 17.0358 19.8557C16.0102 19.9983 14.6575 20 12.75 20H8.75C6.84247 20 5.48983 19.9983 4.46422 19.8557C3.46286 19.7164 2.88514 19.4558 2.46079 19.0169C2.03301 18.5744 1.77642 17.9663 1.64019 16.9183C1.50149 15.8512 1.5 14.4459 1.5 12.475V10.9539C1.5 9.79582 1.50076 8.97859 1.56161 8.33104C1.62103 7.69865 1.73385 7.28589 1.92709 6.93285C2.11965 6.58106 2.40133 6.27164 2.89092 5.8967C3.3941 5.51135 4.06869 5.09169 5.02953 4.49537L7.02953 3.25412Z" fill="#8A8AA3"/>
</svg>
