<svg width="20" height="21" viewBox="0 0 20 21" fill="none" xmlns="http://www.w3.org/2000/svg">
<path fill-rule="evenodd" clip-rule="evenodd" d="M3.25 8.80461V6.75C3.25 3.02208 6.27208 0 10 0C13.7279 0 16.75 3.02208 16.75 6.75V8.80461C17.8648 8.88786 18.5907 9.09805 19.1213 9.62868C20 10.5074 20 11.9216 20 14.75C20 17.5784 20 18.9926 19.1213 19.8713C18.2426 20.75 16.8284 20.75 14 20.75H6C3.17157 20.75 1.75736 20.75 0.87868 19.8713C0 18.9926 0 17.5784 0 14.75C0 11.9216 0 10.5074 0.87868 9.62868C1.40931 9.09805 2.13525 8.88786 3.25 8.80461ZM4.75 6.75C4.75 3.85051 7.10051 1.5 10 1.5C12.8995 1.5 15.25 3.85051 15.25 6.75V8.75357C14.867 8.75 14.4515 8.75 14 8.75H6C5.54849 8.75 5.13301 8.75 4.75 8.75357V6.75ZM6 15.75C6.55228 15.75 7 15.3023 7 14.75C7 14.1977 6.55228 13.75 6 13.75C5.44772 13.75 5 14.1977 5 14.75C5 15.3023 5.44772 15.75 6 15.75ZM10 15.75C10.5523 15.75 11 15.3023 11 14.75C11 14.1977 10.5523 13.75 10 13.75C9.44772 13.75 9 14.1977 9 14.75C9 15.3023 9.44772 15.75 10 15.75ZM15 14.75C15 15.3023 14.5523 15.75 14 15.75C13.4477 15.75 13 15.3023 13 14.75C13 14.1977 13.4477 13.75 14 13.75C14.5523 13.75 15 14.1977 15 14.75Z" fill="#8A8AA3"/>
</svg>
