<svg width="52" height="44" viewBox="0 0 52 44" fill="none" xmlns="http://www.w3.org/2000/svg">
<path d="M17.9742 22.7943L13.0702 27.6631L7.74148 27.0332L7.80216 26.5223L12.8809 27.1232L17.6075 22.4298L17.9742 22.7943Z" fill="#ACCFE4"/>
<path d="M8.26184 26.9505L8.19234 27.0329C8.21243 27.003 8.23574 26.9754 8.26184 26.9505Z" fill="#90B5C6"/>
<path d="M49.9021 23.0262C50.6014 22.9049 51.2896 22.7242 52 22.5652L46.3414 16.8308L44.1932 24.6425C44.1889 24.6589 44.1839 24.6757 44.1797 24.6921L44.2266 24.6772C45.0084 24.4309 45.6598 24.2501 46.2903 24.0149C46.6743 23.8711 46.8736 23.9032 46.9681 24.2257C46.9708 24.2368 46.9743 24.2478 46.9773 24.2597C46.9906 24.3139 47.0008 24.3687 47.0081 24.424C47.227 26.0171 47.2511 27.6094 46.9627 29.1902C46.4442 32.0488 45.0995 34.6958 43.0925 36.809L43.0883 36.8139C40.3153 39.7305 36.4282 41.4707 32.321 41.4002H32.202C31.7903 41.3933 31.3785 41.388 30.9666 41.3842H30.9608C28.0322 41.3571 25.1021 41.3941 22.1728 41.3952C21.841 41.3952 21.5199 41.3704 21.2511 41.6621C20.4773 42.4956 19.6313 43.2495 18.4616 43.8607C18.45 43.8668 18.4381 43.8725 18.4266 43.879L18.5065 43.895C18.6947 43.9331 18.7519 43.953 18.8091 43.9522C20.0729 43.9522 21.3364 43.961 22.601 43.972H22.6394C25.2949 43.9941 27.9504 44.022 30.6029 43.972H30.6156C31.4297 43.957 32.2432 43.9342 33.056 43.9034C34.8763 43.8327 36.5692 43.5404 38.1348 43.0264C40.7077 42.1464 42.9589 40.7085 44.8775 38.6899L44.8848 38.6823C44.8894 38.6773 44.8936 38.6724 44.8986 38.6678C45.0188 38.537 45.139 38.4036 45.2573 38.2674C46.1383 37.2468 46.914 36.1411 47.573 34.9669C49.2396 32.0244 49.9243 28.878 49.679 25.5938L49.6767 25.5618C49.6298 24.9494 49.5508 24.3324 49.4397 23.7106C49.3675 23.282 49.4651 23.102 49.9021 23.0262Z" fill="#2C7F99"/>
<path d="M42.3245 19.951C42.3174 20.0673 42.2928 20.182 42.2515 20.2911C42.1179 20.7044 41.8866 21.08 41.577 21.3864C41.2673 21.6928 40.8883 21.9211 40.4716 22.0523C40.1923 22.1384 39.9014 22.181 39.609 22.1785H38.2488C36.849 22.1343 35.599 22.6567 34.7312 23.5954C34.7285 23.5977 34.7262 23.6003 34.7242 23.6031C34.721 23.606 34.718 23.6091 34.7154 23.6126C34.028 24.363 33.5821 25.3761 33.493 26.578C33.48 26.7511 33.4746 26.9281 33.4769 27.1091C33.48 27.3245 33.4796 27.5396 33.4746 27.7531C33.4746 27.7794 33.4746 27.8061 33.4746 27.8324C33.4713 27.975 33.4657 28.1173 33.4577 28.2591C33.4347 28.7145 33.3834 29.1681 33.3041 29.6173C33.187 30.2418 33.0024 30.852 32.7534 31.4372C32.6557 31.6557 32.5465 31.8689 32.4262 32.0759C30.8579 34.7797 28.541 36.2934 25.3602 36.3617C23.6321 36.3998 21.9039 36.3567 20.1785 36.3857C19.6793 36.3945 19.5195 36.2504 19.5257 35.7459C19.5495 33.9683 19.5391 32.1903 19.5368 30.4131L19.5261 23.8204C19.5261 23.7039 19.5727 23.5921 19.6556 23.5097C19.7386 23.4272 19.8511 23.3809 19.9685 23.3808H21.6582C21.7753 23.3808 21.8877 23.427 21.9706 23.5092C22.0535 23.5914 22.1001 23.7029 22.1002 23.8193V28.3804C22.1002 29.0575 22.1002 29.7351 22.1002 30.4131C22.1002 31.3244 22.097 32.2358 22.0906 33.1474C22.0871 33.643 22.2058 33.8577 22.7081 33.8425H22.7165L25.0046 33.8253C27.5076 33.804 29.5115 32.4603 30.4009 30.3936C30.404 30.3875 30.4066 30.3818 30.4101 30.3757C30.432 30.3242 30.4523 30.2727 30.4715 30.2232C30.7453 29.516 30.8897 28.7661 30.8982 28.0086C30.9178 26.8647 30.9554 25.7303 31.2957 24.6192C31.5797 23.6911 32.0561 22.8322 32.6943 22.0977C32.6963 22.0955 32.6983 22.0932 32.7 22.0908L32.7058 22.0847C33.975 20.6289 35.8252 19.7207 37.8279 19.6955C37.9677 19.6955 38.1075 19.6929 38.2469 19.6917H39.1179C39.5915 19.6932 40.0651 19.6932 40.5388 19.6917H42.0603C42.1299 19.6915 42.1967 19.7187 42.2462 19.7672C42.2957 19.8158 42.3239 19.8819 42.3245 19.951Z" fill="#2C7F99"/>
<path d="M41.0154 27.2174C41.0154 27.7891 40.7866 28.3374 40.3795 28.7417C39.9724 29.146 39.4203 29.3732 38.8445 29.3733H35.3268C35.1842 29.3733 35.0475 29.317 34.9466 29.2169C34.8458 29.1168 34.7892 28.981 34.7892 28.8394V27.3714C34.7892 27.2299 34.8458 27.0941 34.9466 26.994C35.0475 26.8939 35.1842 26.8376 35.3268 26.8376H40.6325C40.7339 26.8379 40.831 26.878 40.9027 26.9492C40.9745 27.0203 41.0149 27.1167 41.0154 27.2174Z" fill="#2C7F99"/>
<path d="M33.6505 35.8104C33.6551 36.0887 33.5891 36.2523 33.427 36.327C33.3717 36.3511 33.3119 36.3629 33.2515 36.3617H31.2515C31.1948 36.3617 31.14 36.3416 31.097 36.305C31.0539 36.2685 31.0253 36.2179 31.0165 36.1623L31.0119 36.1318C31.0005 36.023 30.9978 35.9135 31.0038 35.8043C31.0029 35.7504 31.0104 35.6968 31.0261 35.6453C31.053 35.5607 31.1036 35.4856 31.172 35.4287C31.6464 35.0256 32.0846 34.5822 32.4815 34.1037C32.5909 33.972 32.6979 33.8364 32.8026 33.6968C33.1101 33.2838 33.3908 32.8516 33.6428 32.4031V32.5411C33.6428 33.0963 33.6401 33.6118 33.639 34.1044C33.639 34.6935 33.6401 35.2521 33.6505 35.8104Z" fill="#2C7F99"/>
<path d="M30.9239 22.5259C30.5092 23.2424 30.1609 23.9901 29.9612 24.9102C28.5422 22.7585 26.5487 22.1099 24.1943 22.2029C22.9988 22.2498 21.7991 22.2304 20.6021 22.2087C19.268 22.1846 18.0675 21.3119 17.7015 20.1416C17.6366 19.9346 17.5164 19.6925 17.8413 19.6658H24.5053L24.8509 19.6807C25.4151 19.707 25.9788 19.7493 26.5407 19.8141C28.1536 19.9998 29.5188 20.8055 30.7308 21.8647C30.9443 22.0497 31.1029 22.2159 30.9239 22.5259Z" fill="#2C7F99"/>
<path d="M43.2216 17.8405C43.0111 18.1966 42.7661 18.3362 42.3591 18.327C41.5077 18.3057 40.6555 18.3206 39.6732 18.3206H39.6613C39.6651 18.316 39.669 18.3122 39.6728 18.308C43.5407 14.2281 43.0611 8.72328 39.9286 5.41285C36.5196 1.81034 30.7561 1.44734 27.0894 4.79629C26.6542 5.19411 26.221 5.59409 25.7899 5.99623C25.3956 6.36381 25.0036 6.7324 24.6136 7.102C24.6108 7.10512 24.6077 7.10805 24.6044 7.11077L24.5983 7.11725C24.5967 7.11888 24.595 7.12041 24.5933 7.12183C22.9201 8.70803 21.2707 10.3205 19.6194 11.9296C18.783 12.7448 17.9449 13.5583 17.1052 14.3699C16.3959 15.0536 16.4013 15.0608 17.0795 15.7552C17.8936 16.5887 18.71 17.4196 19.6083 18.3358C18.4539 18.3358 17.364 18.3972 16.2861 18.3099C15.7557 18.2672 15.4539 17.6998 15.1002 17.3235C14.7465 16.9471 14.5142 16.8468 14.0771 17.2773C13.9658 17.3874 13.8542 17.4971 13.7423 17.6064L13.5503 17.7944C10.793 20.5016 7.98996 23.1615 5.25148 25.8863C0.345172 30.7669 2.60439 39.2832 9.28374 41.0681C12.4481 41.9134 15.2895 41.1825 17.624 38.9824C17.634 38.974 17.6436 38.9648 17.6532 38.9557C17.7599 38.8573 17.8653 38.7556 17.9692 38.6506C18.6052 38.0573 19.2365 37.7058 20.0211 37.6486C20.0933 37.6432 20.1659 37.6406 20.2404 37.6398H22.7116L22.6732 37.6814L22.5518 37.8068C22.1709 38.2022 21.8606 38.5443 21.523 38.855C20.7081 39.6005 19.9439 40.4012 19.109 41.1234C18.3867 41.7151 17.6313 42.2509 16.8152 42.6939C14.3659 43.9499 11.715 44.2382 9.25801 43.7272C9.25637 43.7276 9.25466 43.7276 9.25302 43.7272C7.93665 43.4432 6.67804 42.9404 5.53028 42.2402L5.4193 42.1712C2.82598 40.5259 0.851318 37.8236 0.217293 34.3755C-0.025923 33.0537 -0.0649651 31.7876 0.100166 30.5774C0.334273 29.0122 0.890921 27.5116 1.73534 26.1696C2.30014 25.2981 2.96541 24.495 3.71768 23.7766C5.7013 21.8617 7.68517 19.9476 9.6693 18.0342L10.2331 17.4958L10.6409 17.0962L10.6501 17.0878L10.6539 17.084C13.677 14.1694 16.7031 11.2578 19.7323 8.34923V8.34732C21.3542 6.79086 22.9773 5.23567 24.6017 3.68175L24.6317 3.65316C24.7192 3.56876 24.8072 3.48462 24.8955 3.40074C28.2185 0.222996 32.207 -0.739402 36.5906 0.562732C41.0004 1.87059 43.6862 4.94233 44.6847 9.39513C45.3583 12.3872 44.7788 15.2046 43.2216 17.8405Z" fill="#2C7F99"/>
<path d="M18.2446 25.4314V24.6173L11.5184 31.3106C11.2613 31.1476 10.9528 31.0841 10.6516 31.1322C10.3504 31.1803 10.0774 31.3366 9.88473 31.5714C9.69202 31.8062 9.59294 32.1032 9.60633 32.4058C9.61972 32.7084 9.74465 32.9956 9.95737 33.2127C10.1701 33.4298 10.4557 33.5618 10.76 33.5834C11.0643 33.6051 11.366 33.515 11.6078 33.3302C11.8495 33.1454 12.0144 32.8789 12.0711 32.5812C12.1279 32.2836 12.0725 31.9757 11.9155 31.716L18.2446 25.4314ZM11.5626 32.3516C11.5623 32.5287 11.4952 32.6993 11.3745 32.8297C11.2539 32.9601 11.0884 33.041 10.9106 33.0563C10.7329 33.0716 10.5559 33.0202 10.4144 32.9123C10.273 32.8045 10.1773 32.6479 10.1463 32.4735C10.1154 32.299 10.1513 32.1194 10.2471 31.97C10.3429 31.8206 10.4916 31.7123 10.6639 31.6663C10.8361 31.6203 11.0195 31.6401 11.1778 31.7217C11.3361 31.8033 11.4579 31.9408 11.5192 32.1072C11.5487 32.1855 11.564 32.2683 11.5645 32.352L11.5626 32.3516Z" fill="#2C7F99"/>
<path d="M18.2446 27.5091V28.3239L15.4696 31.0792V33.383L14.5184 34.4411C14.69 34.6909 14.7632 34.9947 14.7241 35.2946C14.6849 35.5945 14.5361 35.8697 14.306 36.0678C14.0759 36.2659 13.7804 36.3731 13.4759 36.3691C13.1713 36.365 12.8788 36.25 12.6541 36.0459C12.4294 35.8417 12.2881 35.5627 12.257 35.2618C12.2259 34.961 12.3073 34.6593 12.4856 34.4141C12.6639 34.1689 12.9268 33.9974 13.2242 33.932C13.5216 33.8667 13.8328 33.9122 14.0986 34.0598L14.8993 33.1672V30.842L15.4723 30.2701L18.2446 27.5091Z" fill="#ACCFE4"/>
<path d="M30.591 18.9314L31.1044 19.3127L34.225 16.2143H36.9293L37.4723 15.7331L38.955 14.3928C39.2067 14.5632 39.5126 14.6359 39.8146 14.5971C40.1167 14.5582 40.3938 14.4104 40.5934 14.1819C40.7929 13.9534 40.9009 13.6601 40.8968 13.3577C40.8927 13.0553 40.7769 12.7649 40.5713 12.5418C40.3657 12.3187 40.0847 12.1783 39.7817 12.1475C39.4787 12.1166 39.1748 12.1974 38.9279 12.3745C38.6809 12.5515 38.5081 12.8125 38.4424 13.1078C38.3766 13.4031 38.4224 13.7121 38.571 13.976L36.712 15.648L34.7984 15.6461H33.9861L33.4101 16.215L30.591 18.9314Z" fill="#ACCFE4"/>
<path d="M13.8091 19.8332C13.5943 19.8333 13.3831 19.8874 13.1951 19.9904C13.0071 20.0935 12.8485 20.2422 12.734 20.4225C12.6195 20.6029 12.5529 20.8091 12.5404 21.022C12.5279 21.2348 12.5698 21.4474 12.6624 21.6398L12.4535 21.8472L6.64431 27.5499L7.19039 28.0978L13.1946 22.2018C13.3644 22.2947 13.5532 22.3478 13.7468 22.357C13.9404 22.3663 14.1335 22.3315 14.3115 22.2552C14.4894 22.179 14.6475 22.0634 14.7735 21.9172C14.8995 21.771 14.9901 21.5981 15.0385 21.4117C15.0869 21.2254 15.0917 21.0305 15.0526 20.8421C15.0134 20.6536 14.9314 20.4765 14.8128 20.3244C14.6941 20.1722 14.542 20.049 14.368 19.9642C14.1941 19.8794 14.0029 19.8352 13.8091 19.8351V19.8332ZM13.8091 21.7709C13.6742 21.771 13.5424 21.7314 13.4302 21.657C13.3181 21.5827 13.2306 21.477 13.179 21.3533C13.1274 21.2296 13.1138 21.0935 13.1401 20.9622C13.1664 20.8309 13.2313 20.7102 13.3267 20.6156C13.422 20.5209 13.5435 20.4564 13.6758 20.4303C13.8081 20.4042 13.9451 20.4176 14.0697 20.4689C14.1943 20.5202 14.3007 20.607 14.3756 20.7183C14.4505 20.8297 14.4904 20.9606 14.4903 21.0945C14.4902 21.2739 14.4184 21.4459 14.2907 21.5727C14.1629 21.6995 13.9897 21.7708 13.8091 21.7709Z" fill="#2C7F99"/>
<path d="M36.8867 5.80596C34.182 4.08287 30.7177 4.38944 28.3329 6.61927L28.326 6.62575C28.3106 6.64062 28.2945 6.65511 28.2792 6.6696C26.1847 8.63024 24.1463 10.6492 22.0802 12.6388L22.076 12.643L21.4581 13.2508C21.1865 13.1151 20.8748 13.0806 20.5797 13.1538C20.2847 13.2269 20.0259 13.4028 19.8504 13.6494C19.6749 13.896 19.5944 14.197 19.6236 14.4975C19.6527 14.7981 19.7895 15.0783 20.0091 15.2871C20.2287 15.496 20.5165 15.6197 20.8202 15.6356C21.1239 15.6516 21.4233 15.5588 21.6638 15.3741C21.9044 15.1894 22.0703 14.9251 22.1312 14.6293C22.1921 14.3335 22.144 14.0258 21.9957 13.7621L22.6566 13.1376C24.4735 11.3924 26.2615 9.61704 28.1052 7.90234C28.111 7.89662 28.1163 7.89128 28.1221 7.88633C28.2114 7.8032 28.301 7.72021 28.3909 7.63734L28.3986 7.63009C28.4501 7.58281 28.5019 7.53515 28.5522 7.48749C28.6989 7.35302 28.8457 7.2188 28.9927 7.08484C29.0522 7.03107 29.1113 6.97922 29.1716 6.92774C31.2964 5.12763 34.1217 5.00828 36.5123 6.47819C36.7538 6.62651 37.081 6.88542 37.3233 6.52395C37.5476 6.19222 37.2093 6.0111 36.8867 5.80596ZM20.8882 15.0788C20.7484 15.0788 20.6117 15.0376 20.4954 14.9605C20.3792 14.8833 20.2885 14.7737 20.235 14.6454C20.1815 14.5172 20.1675 14.376 20.1948 14.2398C20.2221 14.1037 20.2894 13.9786 20.3883 13.8804C20.4872 13.7822 20.6131 13.7154 20.7503 13.6883C20.8874 13.6612 21.0296 13.6751 21.1588 13.7283C21.288 13.7814 21.3984 13.8714 21.476 13.9868C21.5537 14.1022 21.5952 14.238 21.5952 14.3768C21.5952 14.469 21.5769 14.5603 21.5414 14.6454C21.5059 14.7306 21.4538 14.808 21.3881 14.8732C21.3225 14.9383 21.2445 14.99 21.1588 15.0253C21.073 15.0606 20.9811 15.0788 20.8882 15.0788Z" fill="#2C7F99"/>
<path d="M27.4758 13.6199C27.4758 13.8039 27.4268 13.9846 27.3337 14.1437C27.2407 14.3028 27.1069 14.4347 26.946 14.5259C26.7851 14.6171 26.6027 14.6645 26.4174 14.6631C26.2321 14.6618 26.0505 14.6118 25.8909 14.5183L22.0426 18.337H21.2715L25.5096 14.132C25.4307 13.993 25.385 13.8379 25.376 13.6786C25.367 13.5193 25.3949 13.3601 25.4576 13.2132C25.5203 13.0663 25.6161 12.9356 25.7376 12.8312C25.8591 12.7268 26.0031 12.6515 26.1585 12.611C26.3139 12.5705 26.4766 12.566 26.6341 12.5977C26.7916 12.6295 26.9396 12.6966 27.0668 12.7941C27.194 12.8915 27.2971 13.0166 27.368 13.1598C27.4389 13.303 27.4757 13.4604 27.4758 13.6199Z" fill="#ACCFE4"/>
<path d="M33.5503 8.75264C33.5504 8.93662 33.5014 9.11734 33.4084 9.27647C33.3154 9.43559 33.1817 9.56746 33.0208 9.65869C32.8599 9.74992 32.6775 9.79726 32.4922 9.7959C32.307 9.79455 32.1253 9.74455 31.9658 9.65098L30.3729 11.2315V14.0531L26.0576 18.3358H25.2864L29.8283 13.8289V11.0073L31.5841 9.26435C31.5052 9.12533 31.4596 8.97022 31.4505 8.81093C31.4415 8.65165 31.4694 8.49243 31.5321 8.34553C31.5948 8.19863 31.6906 8.06796 31.8121 7.96357C31.9336 7.85918 32.0776 7.78384 32.233 7.74337C32.3884 7.70289 32.5511 7.69834 32.7086 7.73008C32.8661 7.76181 33.0141 7.82899 33.1413 7.92643C33.2685 8.02387 33.3716 8.14898 33.4425 8.29215C33.5134 8.43532 33.5503 8.59272 33.5503 8.75226V8.75264Z" fill="#ACCFE4"/>
<path d="M34.4696 11.4179C34.2591 11.418 34.0523 11.473 33.8699 11.5774C33.6875 11.6818 33.5359 11.832 33.4304 12.0129C33.3249 12.1937 33.269 12.3989 33.2685 12.608C33.268 12.817 33.3227 13.0225 33.4274 13.2039L31.7046 14.9129C30.5706 16.0431 29.4389 17.1854 28.2941 18.337H29.0794L33.8294 13.6192C33.9869 13.7176 34.1653 13.7784 34.3506 13.7967C34.5358 13.815 34.7228 13.7903 34.8967 13.7245C35.0707 13.6587 35.2268 13.5537 35.3529 13.4178C35.4789 13.2818 35.5714 13.1186 35.6231 12.941C35.6747 12.7635 35.6841 12.5764 35.6504 12.3946C35.6168 12.2129 35.541 12.0414 35.4292 11.8937C35.3173 11.7459 35.1724 11.6261 35.0058 11.5435C34.8393 11.461 34.6557 11.418 34.4696 11.4179ZM34.4696 13.2779C34.3848 13.2781 34.3007 13.2622 34.2219 13.231C34.1284 13.1943 34.0444 13.1372 33.9761 13.0639C33.9078 12.9907 33.8569 12.9031 33.8271 12.8077C33.8072 12.7439 33.7971 12.6775 33.7972 12.6106C33.7971 12.4786 33.8365 12.3494 33.9103 12.2396C33.9842 12.1297 34.0892 12.0441 34.212 11.9935C34.3349 11.9429 34.4701 11.9296 34.6006 11.9554C34.731 11.9811 34.8509 12.0446 34.945 12.138C35.039 12.2314 35.1031 12.3503 35.1291 12.4798C35.1551 12.6094 35.1418 12.7436 35.0909 12.8656C35.04 12.9877 34.9538 13.092 34.8432 13.1653C34.7326 13.2387 34.6026 13.2779 34.4696 13.2779Z" fill="#2C7F99"/>
<path d="M16.9408 35.5358C16.5038 35.9815 16.0403 36.4471 15.7185 36.7514C15.1039 37.339 14.3761 37.7972 13.5787 38.0985H13.5768C13.3219 38.194 13.0604 38.2713 12.7945 38.33C12.7741 38.3353 12.7534 38.3399 12.7327 38.3437H12.7284C10.8521 38.7387 8.8663 38.195 7.37552 36.7197C4.97613 34.345 4.87935 30.5088 7.19579 28.1489C8.31791 27.005 9.45655 25.879 10.5963 24.7531C11.3424 24.0159 12.0876 23.2787 12.8321 22.5415C12.8779 22.4946 12.9275 22.4515 12.9804 22.4127L13.1962 22.2007C13.461 22.345 13.769 22.3907 14.0647 22.3295C14.3603 22.2683 14.6243 22.1042 14.809 21.8669C14.9936 21.6295 15.0868 21.3345 15.0718 21.035C15.0567 20.7354 14.9344 20.4511 14.7269 20.2332C14.5193 20.0152 14.2403 19.8781 13.9399 19.8464C13.6395 19.8147 13.3376 19.8906 13.0887 20.0604C12.8397 20.2302 12.6599 20.4827 12.5818 20.7724C12.5038 21.0621 12.5325 21.37 12.6628 21.6405L12.4535 21.8472C12.3846 21.9469 12.3047 22.0388 12.2154 22.121C11.0449 23.2473 9.87911 24.3785 8.71807 25.5145C8.0852 26.1322 7.45232 26.7495 6.81945 27.3665C5.51376 28.6396 4.82252 30.1702 4.71115 31.9977C4.40777 36.9336 9.51838 40.6101 14.1317 38.7673C15.3252 38.2903 16.2258 37.4739 17.0745 36.5966L18.1682 35.426L18.245 35.344V34.154L16.9408 35.5358ZM13.8091 20.4181C13.9439 20.4181 14.0757 20.4578 14.1878 20.5321C14.2999 20.6065 14.3873 20.7122 14.4388 20.8359C14.4904 20.9596 14.5039 21.0956 14.4776 21.2269C14.4513 21.3582 14.3864 21.4788 14.2911 21.5735C14.1958 21.6681 14.0743 21.7326 13.9421 21.7587C13.8098 21.7848 13.6728 21.7714 13.5482 21.7202C13.4237 21.6689 13.3172 21.5822 13.2423 21.4709C13.1674 21.3596 13.1274 21.2287 13.1274 21.0949C13.1274 20.9154 13.1993 20.7432 13.3271 20.6163C13.4549 20.4894 13.6283 20.4181 13.8091 20.4181Z" fill="#2C7F99"/>
<path d="M39.0077 34.9543C38.9161 34.8162 38.7969 34.6982 38.6574 34.6077C38.4288 34.46 38.1564 34.3938 37.8849 34.4198C37.6134 34.4459 37.3589 34.5627 37.163 34.7512C36.9671 34.9397 36.8415 35.1886 36.8067 35.4572C36.7719 35.7259 36.8301 35.9982 36.9716 36.2298L34.3379 38.8447H24.154L23.5437 39.4308H34.5825L37.3925 36.6416C37.5767 36.7496 37.7868 36.8064 38.0007 36.8059C38.2179 36.8059 38.431 36.7477 38.6175 36.6372C38.804 36.5268 38.9569 36.3684 39.0601 36.1787C39.1633 35.989 39.2129 35.7751 39.2037 35.5597C39.1945 35.3443 39.1267 35.1354 39.0077 34.9551V34.9543ZM38.0027 36.2786C37.908 36.2788 37.8144 36.259 37.7281 36.2206C37.6909 36.204 37.6553 36.1841 37.6217 36.1611C37.4889 36.0706 37.3933 35.9358 37.3521 35.7812C37.3108 35.6266 37.3268 35.4625 37.3971 35.3186C37.4674 35.1747 37.5873 35.0605 37.735 34.9969C37.8828 34.9333 38.0486 34.9244 38.2025 34.9718C38.3563 35.0192 38.4879 35.1198 38.5734 35.2554C38.6589 35.3909 38.6926 35.5524 38.6684 35.7105C38.6442 35.8686 38.5638 36.0129 38.4416 36.1171C38.3195 36.2213 38.1637 36.2786 38.0027 36.2786Z" fill="#2C7F99"/>
<path d="M44.629 30.2236C44.6294 30.4342 44.567 30.6403 44.4498 30.8158C44.3325 30.9913 44.1655 31.1285 43.9699 31.21C43.7743 31.2916 43.5587 31.3138 43.3504 31.274C43.1421 31.2341 42.9503 31.134 42.7991 30.9862L40.2047 32.4092H34.7899V31.8212H40.0534L42.5084 30.4756C42.4881 30.3931 42.478 30.3085 42.4781 30.2236C42.4781 29.9404 42.5914 29.6689 42.793 29.4686C42.9947 29.2684 43.2682 29.1559 43.5534 29.1559C43.8385 29.1559 44.112 29.2684 44.3137 29.4686C44.5153 29.6689 44.6286 29.9404 44.6286 30.2236H44.629Z" fill="#ACCFE4"/>
</svg>
