<svg id="Layer_1" data-name="Layer 1" xmlns="http://www.w3.org/2000/svg" viewBox="0 0 2410.92 1791.53"><defs><style>.cls-1{fill:#accfe4;}.cls-2{fill:#90b5c6;}.cls-3{fill:#237292;}.cls-4{fill:#2c7f99;}</style></defs><title>Artboard 1</title><polygon class="cls-1" points="996.46 597.84 868.76 725.53 851.68 723.51 730 709.01 731.58 695.61 863.83 711.37 986.91 588.28 996.46 597.84"/><path class="cls-2" d="M743.55,706.84,741.74,709A13,13,0,0,1,743.55,706.84Z"/><path class="cls-3" d="M1827.86,603.92c18.21-3.18,36.13-7.92,54.63-12.09L1735.14,441.44,1679.2,646.31c-.11.43-.24.87-.35,1.3l1.22-.39c20.36-6.46,37.32-11.2,53.74-17.37,10-3.77,15.19-2.93,17.65,5.53.07.29.16.58.24.89a40.32,40.32,0,0,1,.8,4.31c5.7,41.78,6.33,83.54-1.18,125a392.71,392.71,0,0,1-100.78,199.81l-.11.13c-72.21,76.49-173.43,122.13-280.38,120.28l-3,0h-.1q-16.08-.27-32.17-.42h-.15c-76.26-.71-152.56.26-228.84.29-8.64,0-17-.65-24,7-20.15,21.86-42.18,41.63-72.64,57.66-.3.16-.61.31-.91.48l2.08.42h0c4.9,1,6.39,1.52,7.88,1.5,32.91,0,65.81.23,98.74.52h1c69.15.58,138.3,1.31,207.37,0h.33q31.8-.59,63.55-1.8,71.1-2.78,132.25-23h0c67-23.08,125.62-60.79,175.58-113.73l.19-.2c.12-.13.23-.26.36-.38,3.13-3.43,6.26-6.93,9.34-10.5,0,0,0,0,0,0a527.81,527.81,0,0,0,60.3-86.56c43.4-77.17,61.23-159.69,54.84-245.82l-.06-.84v0q-1.83-24.09-6.17-48.55C1813.94,610.63,1816.48,605.91,1827.86,603.92Z"/><path class="cls-4" d="M1630.54,523.27a30.69,30.69,0,0,1-1.9,8.92,71.32,71.32,0,0,1-46.35,46.19,73.66,73.66,0,0,1-22.46,3.31h-35.42c-36.45-1.16-69,12.54-91.6,37.16a1.12,1.12,0,0,0-.18.2,1.74,1.74,0,0,0-.23.25h0c-17.9,19.68-29.51,46.25-31.83,77.77q-.51,6.81-.42,13.93c.08,5.65.07,11.29-.06,16.89,0,.69,0,1.39,0,2.08q-.13,5.61-.44,11.19a290.49,290.49,0,0,1-4,35.62,231.64,231.64,0,0,1-14.34,47.73v0a178.3,178.3,0,0,1-8.52,16.75c-40.84,70.91-101.17,110.61-184,112.4-45,1-90-.13-134.93.63-13,.23-17.16-3.55-17-16.78.62-46.62.35-93.25.29-139.86l-.28-172.9a11.53,11.53,0,0,1,11.52-11.53h44a11.51,11.51,0,0,1,11.51,11.5l0,119.62q0,26.64,0,53.31,0,35.85-.25,71.71c-.09,13,3,18.63,16.08,18.23h.22l59.58-.45c65.18-.56,117.36-35.8,140.52-90,.08-.16.15-.31.24-.47.57-1.35,1.1-2.7,1.6-4a167.06,167.06,0,0,0,11.11-58.08c.51-30,1.49-59.75,10.35-88.89a182.41,182.41,0,0,1,36.42-66.13h0a2,2,0,0,0,.15-.18l.15-.16c33.05-38.18,81.23-62,133.38-62.66,3.64,0,7.28-.07,10.91-.1h22.68q18.5.06,37,0h39.62A6.86,6.86,0,0,1,1630.54,523.27Z"/><path class="cls-4" d="M1596.45,713.84h0a56.54,56.54,0,0,1-56.53,56.54h-91.6a14,14,0,0,1-14-14V717.88a14,14,0,0,1,14-14h138.16A10,10,0,0,1,1596.45,713.84Z"/><path class="cls-4" d="M1404.67,939.2c.12,7.3-1.6,11.59-5.82,13.55a10.82,10.82,0,0,1-4.57.91H1342.2a6.2,6.2,0,0,1-6.12-5.23h0l-.12-.8a54.7,54.7,0,0,1-.21-8.59h0a13.65,13.65,0,0,1,.58-4.17,12.22,12.22,0,0,1,3.8-5.68,280.16,280.16,0,0,0,34.1-34.75q4.27-5.18,8.36-10.67l0,0a316.64,316.64,0,0,0,21.88-33.93v3.62c0,14.56-.07,28.08-.1,41C1404.37,909.91,1404.4,924.56,1404.67,939.2Z"/><path class="cls-4" d="M1333.67,590.8c-10.8,18.79-19.87,38.4-25.07,62.53-36.95-56.43-88.86-73.44-150.17-71-31.13,1.23-62.37.72-93.54.15-34.74-.63-66-23.52-75.53-54.21-1.69-5.43-4.82-11.78,3.64-12.48h.23l4.91,0h168.39l9,.39c14.69.69,29.37,1.8,44,3.5,42,4.87,77.55,26,109.11,53.78C1334.2,578.31,1338.33,582.67,1333.67,590.8Z"/><path class="cls-4" d="M1653.9,467.92c-5.48,9.34-11.86,13-22.46,12.76-22.17-.56-44.36-.17-69.94-.17h-.31c.1-.12.2-.22.3-.33,100.72-107,88.23-251.37,6.66-338.19-88.77-94.48-238.85-104-334.33-16.17q-17,15.65-33.84,31.47h0q-15.4,14.46-30.63,29a2.61,2.61,0,0,1-.24.23l-.16.17a1.42,1.42,0,0,1-.13.12c-43.57,41.6-86.52,83.89-129.52,126.09l0,0q-32.67,32.07-65.47,64c-18.47,17.93-18.33,18.12-.67,36.33,21.2,21.86,42.46,43.65,65.85,67.68-30.06,0-58.44,1.61-86.51-.68-13.81-1.12-21.67-16-30.88-25.87s-15.26-12.5-26.64-1.21q-4.35,4.33-8.72,8.63l-5,4.93c-71.8,71-144.79,140.76-216.1,212.22-127.76,128-68.93,351.35,105,398.16,82.4,22.17,156.39,3,217.18-54.7.26-.22.51-.46.76-.7q4.17-3.87,8.23-8c16.56-15.56,33-24.78,53.43-26.28,1.88-.14,3.77-.21,5.71-.23h64.35l-1,1.09-3.16,3.29c-9.92,10.37-18,19.34-26.79,27.49-21.22,19.55-41.12,40.55-62.86,59.49-18.81,15.52-38.48,29.57-59.73,41.19-63.78,32.94-132.81,40.5-196.79,27.1a.31.31,0,0,1-.13,0,311.58,311.58,0,0,1-96.94-39l-2.89-1.81C602,1062.87,550.58,992,534.07,901.57q-9.5-52-3.05-99.61a301.87,301.87,0,0,1,42.58-115.6,349.42,349.42,0,0,1,51.62-62.76Q702.7,548.27,780.2,473l14.68-14.12L805.5,448.4l.24-.22.1-.1Q923.92,333.42,1042.24,219l0-.05q63.35-61.23,126.8-122.36l.78-.75q3.42-3.32,6.87-6.62c86.53-83.34,190.39-108.58,304.54-74.43C1596.06,49.09,1666,129.65,1692,246.43,1709.54,324.9,1694.45,398.79,1653.9,467.92Z"/><path class="cls-4" d="M1003.5,667V645.65L828.35,821.19a32.39,32.39,0,1,0,10.34,10.63Zm-174,181.49a18.58,18.58,0,1,1-1.13-6.41h0A18.57,18.57,0,0,1,829.55,848.5Z"/><path class="cls-1" d="M1003.5,721.49v21.37l-72.26,72.26v60.42l-12.62,14.14-12.15,13.61a32.34,32.34,0,1,1-10.93-10l20.85-23.41,0-39.83,0-21.15,14.92-15Z"/><path class="cls-1" d="M1325,496.53l13.37,10,81.26-81.26h70.42l14.14-12.62,38.61-35.15a32.34,32.34,0,1,0-10-10.93l-48.41,43.85-49.83-.05-21.15,0-15,14.92Z"/><path class="cls-4" d="M888,520.18a33.11,33.11,0,0,0-29.86,47.38L852.7,573l-97.27,96.19-54,53.37,14.22,14.37,88.65-87.68,62.08-61.39h0l5.62-5.56a33.09,33.09,0,1,0,16-62.07ZM888,571a17.75,17.75,0,1,1,17.74-17.74A17.75,17.75,0,0,1,888,571Z"/><path class="cls-4" d="M1488.94,152.3c-70.43-45.19-160.64-37.15-222.74,21.33l-.18.17h0c-.4.39-.82.77-1.22,1.15-54.54,51.42-107.62,104.37-161.42,156.55l-.11.11-5.66,5.61-6.52,6.46-3.91,3.87a33.06,33.06,0,1,0,14,13.41l17.21-16.38c47.31-45.77,93.87-92.33,141.88-137.3.15-.15.29-.29.44-.42h0q3.49-3.27,7-6.53l.2-.19c1.34-1.24,2.69-2.49,4-3.74q5.73-5.29,11.47-10.56c1.55-1.41,3.09-2.77,4.66-4.12h0c55.33-47.21,128.9-50.34,191.15-11.79,6.29,3.89,14.81,10.68,21.12,1.2C1506.15,162.43,1497.34,157.68,1488.94,152.3Zm-416.6,243.19a18.41,18.41,0,1,1,18.41-18.41A18.41,18.41,0,0,1,1072.34,395.49Z"/><path class="cls-1" d="M1243.88,357.23a27.36,27.36,0,0,1-41.27,23.56L1102.4,480.94h-20.08l110.36-110.28a27.36,27.36,0,1,1,51.2-13.43Z"/><path class="cls-1" d="M1402.06,229.58a27.35,27.35,0,0,1-41.26,23.56l-41.48,41.45v74l-14.19,14.19-98.18,98.13h-20.08l118.27-118.2,0-54V288.71l14.19-14.18L1350.86,243a27.36,27.36,0,1,1,51.2-13.43Z"/><path class="cls-4" d="M1426,299.48a31.29,31.29,0,0,0-27.14,46.84l-28.49,28.45L1354,391.14c-29.53,29.64-59,59.6-88.81,89.8h20.45L1382.54,384l26.79-26.79A31.27,31.27,0,1,0,1426,299.48Zm0,48.78a17.26,17.26,0,0,1-6.45-1.23,17.5,17.5,0,0,1-10.28-11.1,17.3,17.3,0,0,1-.78-5.17,17.51,17.51,0,1,1,17.51,17.5Z"/><path class="cls-4" d="M969.55,932c-11.38,11.69-23.45,23.9-31.83,31.88A164.87,164.87,0,0,1,882,999.21h-.05a149.75,149.75,0,0,1-20.37,6.07c-.53.14-1.07.26-1.61.36l-.11,0C811,1016,759.29,1001.74,720.47,963.05c-62.48-62.28-65-162.89-4.68-224.78,29.22-30,58.87-59.53,88.55-89.06q29.14-29,58.22-58a31.53,31.53,0,0,1,3.86-3.38h0l5.62-5.56a33,33,0,1,0-13.89-14.69L852.7,573a42.78,42.78,0,0,1-6.2,7.18q-45.72,44.31-91.07,89-24.72,24.3-49.44,48.57c-34,33.39-52,73.53-54.9,121.46-7.9,129.45,125.18,225.87,245.31,177.54,31.08-12.51,54.53-33.92,76.63-56.93l28.48-30.7,2-2.15V895.76ZM888,535.52a17.75,17.75,0,1,1-17.75,17.75A17.75,17.75,0,0,1,888,535.52Z"/><path class="cls-4" d="M1544.17,916.75a31.6,31.6,0,0,0-9.12-9.09,31.35,31.35,0,0,0-43.9,42.54l-68.58,68.58H1157.38l-15.89,15.37h287.45L1502.11,961a31,31,0,0,0,15.84,4.31,31.35,31.35,0,0,0,26.22-48.54ZM1518,951.48a17.39,17.39,0,0,1-7.15-1.52,17.91,17.91,0,0,1-2.77-1.56,17.53,17.53,0,1,1,9.92,3.08Z"/><path class="cls-1" d="M1690.55,792.68a28,28,0,0,1-47.65,20L1575.34,850h-141V834.58h137.06l63.93-35.29a27.69,27.69,0,0,1-.79-6.61,28,28,0,0,1,56,0Z"/><path class="cls-4" d="M126.24,1273.87H0v292H125c88.41,0,156.26-58,156.26-146.8C281.27,1328.15,211.36,1273.87,126.24,1273.87Zm-5.35,219.58H82.24V1346.24h38.65c46.47,0,75.26,28,75.26,73.61C196.15,1466.72,165.72,1493.45,120.89,1493.45Z"/><path class="cls-4" d="M545.26,1370.5c0-71.55-60.86-96.63-122.13-96.63H318.27v292H396.4v-95a170.3,170.3,0,0,0,23.44,2.05,108.27,108.27,0,0,0,11.52-.41l45.23,93.34h86.35L499.2,1450.69C526.34,1434.24,545.26,1402.58,545.26,1370.5ZM426,1408.74c-9.46,0-20.15-.41-29.61-2.88v-66.61h26.32c13.57,0,23.85,2.88,31.66,8.64,7.4,6.16,11.11,14.39,11.11,25.08C465.49,1396.82,448.63,1408.74,426,1408.74Z"/><path class="cls-4" d="M767.32,1440c0,32.9-17.68,58.4-51.82,58.4-34.54,0-51.81-27.14-51.81-58.4V1273.87H581.45V1443.7c0,82.24,55.51,130.35,133.64,130.35,81.42,0,134.47-50.58,134.47-130.35V1273.87H767.32Z"/><path class="cls-4" d="M1048.59,1461.79H1107c-8.23,25.91-35.78,38.65-61.27,38.65-46.88,0-76.08-37.42-76.08-81.42s28-79.77,73.2-79.77c25.08,0,44.41,11.1,57.57,32.9l81-22.21c-25.09-56.33-78.54-84.3-138.17-84.3-90.47,0-158.73,65.38-158.73,155,0,91.29,71.14,153.38,158.73,153.38,84.3,0,149.68-57.16,149.68-141.46v-35.77H1048.59Z"/><polygon class="cls-4" points="1227.87 1565.82 1308.06 1565.82 1308.06 1463.02 1403.87 1463.02 1403.87 1393.94 1308.06 1393.94 1308.06 1343.36 1418.26 1343.36 1418.26 1273.87 1227.87 1273.87 1227.87 1565.82"/><polygon class="cls-4" points="1537.51 1273.87 1455.27 1273.87 1455.27 1565.82 1648.13 1565.82 1648.13 1493.45 1537.51 1493.45 1537.51 1273.87"/><path class="cls-4" d="M1827,1265.64c-89.24,0-158.32,66.21-158.32,154.62,0,90.46,70.32,153.79,157.49,153.79,89.65,0,158.32-65.79,158.32-154.61C1984.5,1328.56,1914.59,1265.64,1827,1265.64Zm-.42,232.75c-45.23,0-72.78-36.19-72.78-78.54,0-43.59,28.78-78.54,72.78-78.54,45.24,0,72.79,36.18,72.79,78.54C1899.38,1463.43,1870.59,1498.39,1826.59,1498.39Z"/><polygon class="cls-4" points="2327.45 1273.87 2285.09 1456.03 2238.63 1273.87 2165.84 1273.87 2119.38 1456.03 2077.03 1273.87 1990.67 1273.87 2079.08 1565.82 2153.92 1565.82 2201.21 1380.37 2248.5 1565.82 2322.51 1565.82 2410.93 1273.87 2327.45 1273.87"/><rect class="cls-4" x="40" y="1648.62" width="13.78" height="14.53"/><rect class="cls-4" x="17.68" y="1648.62" width="13.78" height="14.53"/><rect class="cls-4" x="88.08" y="1765.46" width="13.78" height="14.53"/><rect class="cls-4" x="110.4" y="1765.46" width="13.78" height="14.53"/><rect class="cls-4" x="147.4" y="1765.46" width="14.08" height="14.53"/><path class="cls-4" d="M309.79,1739.25H279.68V1716a58.69,58.69,0,0,0-1.65-13.56,38.5,38.5,0,0,0-5.61-12.81,29.22,29.22,0,0,0-10.86-9.44q-6.9-3.59-17.38-3.59a43.82,43.82,0,0,0-16.4,2.85,47.34,47.34,0,0,0-12.89,7.64,83.36,83.36,0,0,0-10.71,10.71c-.89,1.06-1.8,2.18-2.7,3.27v-56.38H187.55v94.53H161.49v-62.62H147.4v62.62H114.45v-62.62H100.52v62.62H66.21v-62.62H34.45q-13,0-20.52,4a23,23,0,0,0-10.71,12.44Q0,1701.5,0,1714.38q0,12.73,3.22,21a22.63,22.63,0,0,0,10.71,12.28q7.49,4,20.52,4H323.72v-107H309.79ZM22,1737.3a11.43,11.43,0,0,1-6.22-7.27q-1.8-5.31-1.8-15.65t1.8-16q1.8-5.48,6.29-7.34t12.43-1.88H52.28v50H34.45Q26.36,1739.25,22,1737.3Zm179.53-19.46c.94-1.2,1.9-2.44,2.92-3.76a106.78,106.78,0,0,1,7.57-8.69,81.39,81.39,0,0,1,9-8,43.24,43.24,0,0,1,10.48-5.92,32.74,32.74,0,0,1,12.14-2.25,23.85,23.85,0,0,1,12.28,2.92,17.92,17.92,0,0,1,7.42,8.84q2.48,5.92,2.47,15.06v23.22H201.48Z"/><rect class="cls-4" x="349.04" y="1644.72" width="13.93" height="106.96"/><rect class="cls-4" x="471.73" y="1662.1" width="13.78" height="14.53"/><rect class="cls-4" x="449.41" y="1662.1" width="13.78" height="14.53"/><path class="cls-4" d="M504.83,1739.25H462a83.45,83.45,0,0,1-14.91-1.13,26.15,26.15,0,0,1-9.88-3.67,15.17,15.17,0,0,1-5.62-6.59,23.4,23.4,0,0,1-1.8-9.58,55.43,55.43,0,0,1,.75-8.84q.75-4.65,1.57-8.69t1.28-6.44l-13.64-2.55c-.2.8-.5,2.15-.89,4s-.83,4.15-1.28,6.75-.85,5.26-1.2,8a61.26,61.26,0,0,0-.52,7.72q0,11.38,5.17,18.72t15.35,11q10.19,3.67,25.32,3.67h57.22v-75H504.83Z"/><path class="cls-4" d="M645,1680.37q-8.61-3.73-21.34-3.74a89.42,89.42,0,0,0-16.26,1.35,65,65,0,0,0-10.71,2.69q-.9,3.45-1.87,9.14t-1.65,12.66q-.67,7-.67,14.31t.67,14.23c.31,3,.64,5.78,1,8.24h-36v-94.53H544.23v107h117.9v-36.85q0-14.08-4.27-22.4A25.51,25.51,0,0,0,645,1680.37Zm-38.12,48.54q-.6-6-.6-12.13t.6-12.36q.6-6.23,1.5-11.61c.14-.85.28-1.66.42-2.44.78-.14,1.57-.28,2.42-.41a85.73,85.73,0,0,1,12.44-.9q9.29,0,14.68,2.4a14,14,0,0,1,7.56,7.94Q648,1705,648,1714.83v24.42H608.17C607.68,1736.28,607.24,1732.84,606.85,1728.91Z"/><rect class="cls-4" x="690.44" y="1648.62" width="14.08" height="14.53"/><rect class="cls-4" x="798" y="1648.62" width="13.78" height="14.53"/><rect class="cls-4" x="775.67" y="1648.62" width="13.78" height="14.53"/><path class="cls-4" d="M1069.74,1739.25h-33.86v-24.42q0-14.08-4.27-22.4a25.49,25.49,0,0,0-12.88-12.06q-8.61-3.73-21.35-3.74a89.3,89.3,0,0,0-16.25,1.35,64.44,64.44,0,0,0-10.71,2.69c-.6,2.3-1.23,5.35-1.87,9.14s-1.2,8-1.65,12.66-.68,9.41-.68,14.31.23,9.73.68,14.23c.3,3,.63,5.78,1,8.24h-34v-29.06a77.5,77.5,0,0,0-.75-9.44q-.75-5.85-1.8-12.29t-2.1-11.83l-13.63,2.25q1.35,6.43,2.32,12.65t1.5,11.09a75.25,75.25,0,0,1,.52,7.57v29.06H899a12.83,12.83,0,0,1-5.54-1.28,25.25,25.25,0,0,1-3.54-2.11,61.9,61.9,0,0,0,2-17.29v-34.3H877.84v34.3a62.09,62.09,0,0,1-1.05,13.19q-1,4.48-3.6,6t-7.64,1.5H850v-47.49H836v47.49H800.69v-62.62H786.76v62.62H752.31v-94.53H738.37v94.53H704.52v-62.62H690.44v77.45q0,9.14-4.12,14.23a13.3,13.3,0,0,1-10.86,5.09c-.8,0-1.83-.05-3.07-.15l-4.12-.3-1.2,12.44c1.5.1,3,.22,4.42.37a40.13,40.13,0,0,0,4.12.23,27.57,27.57,0,0,0,15-4,28.42,28.42,0,0,0,10.18-11.23,35.48,35.48,0,0,0,3.75-16.63v-2.4h161q9.45,0,15.14-3.15a15.9,15.9,0,0,0,2.42-1.65,28.49,28.49,0,0,0,15.85,4.8h184.71v-107h-13.93Zm-89.13-10.34a118.71,118.71,0,0,1-.6-12.13c0-4.1.19-8.22.6-12.36s.89-8,1.49-11.61c.15-.85.29-1.66.43-2.44.77-.14,1.57-.28,2.42-.41a85.59,85.59,0,0,1,12.43-.9q9.29,0,14.68,2.4a13.94,13.94,0,0,1,7.57,7.94q2.18,5.55,2.17,15.43v24.42H981.93C981.44,1736.28,981,1732.84,980.61,1728.91Z"/><rect class="cls-4" x="1108.99" y="1644.72" width="13.93" height="106.96"/><path class="cls-4" d="M1156.92,1680.67a23,23,0,0,0-10.71,12.44q-3.23,8.39-3.22,21.27,0,12.73,3.22,21a22.63,22.63,0,0,0,10.71,12.28q7.49,4,20.52,4h17.83v4.2q0,8.53-5.47,13t-17.45,4.49c-2.5,0-5.49-.15-9-.45s-7.89-.75-13.18-1.34l-2.1,11.23c4.7,1,9,1.77,13,2.32a82.14,82.14,0,0,0,11.31.83,49.93,49.93,0,0,0,19.63-3.52,28,28,0,0,0,12.73-10.34,29.18,29.18,0,0,0,4.49-16.4v-79.1h-31.76Q1164.42,1676.63,1156.92,1680.67Zm20.52,58.58q-8.09,0-12.5-2a11.43,11.43,0,0,1-6.22-7.27q-1.8-5.31-1.8-15.65t1.8-16q1.8-5.48,6.29-7.34t12.43-1.88h17.83v50Z"/><rect class="cls-4" x="1299.09" y="1648.62" width="13.78" height="14.53"/><rect class="cls-4" x="1276.76" y="1648.62" width="13.78" height="14.53"/><path class="cls-4" d="M1373.54,1676.63H1359.6v62.62h-34.3v-62.62h-31.76q-13,0-20.52,4a22.92,22.92,0,0,0-10.71,12.44q-3.22,8.39-3.22,21.27,0,12.73,3.22,21a22.55,22.55,0,0,0,10.71,12.28q7.49,4,20.52,4h80ZM1281,1737.3a11.45,11.45,0,0,1-6.21-7.27q-1.8-5.31-1.8-15.65t1.8-16q1.8-5.48,6.29-7.34t12.43-1.88h17.83v50h-17.83Q1285.46,1739.25,1281,1737.3Z"/><rect class="cls-4" x="1369.49" y="1765.46" width="13.78" height="14.53"/><rect class="cls-4" x="1347.17" y="1765.46" width="13.78" height="14.53"/><path class="cls-4" d="M1405.29,1680.67a23,23,0,0,0-10.71,12.44q-3.22,8.39-3.22,21.27,0,12.73,3.22,21a22.63,22.63,0,0,0,10.71,12.28q7.5,4,20.53,4h17.82v4.2q0,8.53-5.46,13t-17.46,4.49c-2.49,0-5.49-.15-9-.45s-7.89-.75-13.19-1.34l-2.09,11.23q7,1.5,13,2.32a82.14,82.14,0,0,0,11.31.83,49.93,49.93,0,0,0,19.63-3.52,28,28,0,0,0,12.73-10.34,29.1,29.1,0,0,0,4.5-16.4v-79.1h-31.76Q1412.79,1676.63,1405.29,1680.67Zm20.53,58.58q-8.1,0-12.51-2a11.43,11.43,0,0,1-6.22-7.27q-1.8-5.31-1.8-15.65t1.8-16q1.8-5.48,6.29-7.34t12.44-1.88h17.82v50Z"/><path class="cls-4" d="M1515.25,1680.6q-8.84-4-21.27-4h-12.13v12.58H1494q9.43,0,15,2.62a15.73,15.73,0,0,1,8,8.92q2.47,6.29,2.48,17.22v21.28h-44.8v12.43h58.73V1718q0-15.27-4.65-24.34A27.55,27.55,0,0,0,1515.25,1680.6Z"/><path class="cls-4" d="M1593.3,1646.82h-17.71c0-.07-.09-.16-.12-.23a9.06,9.06,0,0,1-.75-3.67,6.89,6.89,0,0,1,2-5.09,7.5,7.5,0,0,1,5.54-1.95,13,13,0,0,1,2.4.23,6.93,6.93,0,0,1,2.4,1l4.19-7.34a18.44,18.44,0,0,0-4.49-2,18,18,0,0,0-5.09-.75,16.71,16.71,0,0,0-8.17,2.1,16.88,16.88,0,0,0-6.14,5.69,14.59,14.59,0,0,0-2.32,8.09,15.28,15.28,0,0,0,.52,3.9H1562v8.69h31.31Z"/><polygon class="cls-4" points="1662.06 1739.25 1644.23 1739.25 1644.23 1739.25 1628.2 1739.25 1628.2 1644.72 1614.27 1644.72 1614.27 1739.25 1584.61 1739.25 1584.61 1665.84 1570.68 1665.84 1570.68 1739.25 1547.61 1739.25 1547.61 1751.68 1628.2 1751.68 1644.23 1751.68 1644.23 1751.68 1662.06 1751.68 1675.99 1751.68 1675.99 1644.72 1662.06 1644.72 1662.06 1739.25"/><rect class="cls-4" x="1766.02" y="1648.62" width="13.78" height="14.53"/><rect class="cls-4" x="1743.7" y="1648.62" width="13.78" height="14.53"/><path class="cls-4" d="M2015.52,1680.37q-8.46-3.73-20.15-3.74a90.08,90.08,0,0,0-13.93,1.12q-7.2,1.13-13.33,2.62l1.49,11.39q7.8-1.2,14.76-1.8t10.71-.6q12.43,0,18.35,4.8t5.92,14.23v30.86h-77.15v-24.42q0-14.08-4.27-22.4a25.53,25.53,0,0,0-12.88-12.06q-8.62-3.73-21.35-3.74a89.3,89.3,0,0,0-16.25,1.35,64.89,64.89,0,0,0-10.72,2.69c-.59,2.3-1.22,5.35-1.87,9.14s-1.2,8-1.65,12.66-.67,9.41-.67,14.31.22,9.73.67,14.23c.31,3,.64,5.78,1,8.24H1840v-94.53h-13.93v94.53h-33.85v-62.62h-31.76q-13,0-20.52,4a23,23,0,0,0-10.72,12.44q-3.21,8.39-3.22,21.27,0,12.73,3.22,21a22.6,22.6,0,0,0,10.72,12.28q7.49,4,20.52,4h272.79v-43.29q0-10-4.64-17.15A29.44,29.44,0,0,0,2015.52,1680.37ZM1748,1737.3a11.43,11.43,0,0,1-6.22-7.27q-1.8-5.31-1.79-15.65t1.79-16q1.8-5.48,6.3-7.34t12.43-1.88h17.83v50h-17.83C1755.09,1739.25,1750.91,1738.6,1748,1737.3Zm138.94-8.39q-.6-6-.6-12.13t.6-12.36q.6-6.23,1.5-11.61c.14-.85.28-1.66.43-2.44.77-.14,1.56-.28,2.42-.41a85.59,85.59,0,0,1,12.43-.9q9.29,0,14.68,2.4a13.94,13.94,0,0,1,7.57,7.94q2.16,5.55,2.17,15.43v24.42h-39.87C1887.75,1736.28,1887.3,1732.84,1886.91,1728.91Z"/><rect class="cls-4" x="1989.23" y="1765.46" width="14.08" height="14.53"/><rect class="cls-4" x="2147.57" y="1648.62" width="13.78" height="14.53"/><path class="cls-4" d="M2142.93,1680.75a23.31,23.31,0,0,0-10.72,12.43q-3.21,8.33-3.22,21,0,12.88,3.22,21.2a22.6,22.6,0,0,0,10.72,12.28q7.49,4,20.52,4h17.83v7.79a18.42,18.42,0,0,1-2.93,10.41,18.69,18.69,0,0,1-8.46,6.82,33.89,33.89,0,0,1-13.48,2.4H2121.5a34.76,34.76,0,0,1-13.85-2.55,21.08,21.08,0,0,1-9.22-7.27,19.53,19.53,0,0,1-3.29-11.46,94.86,94.86,0,0,1,.67-9.51q.68-6.21,2-14.68t2.85-18.65l-13.78-2q-.9,5.55-2,12.21t-1.87,13.11q-.82,6.44-1.43,11.83a84.22,84.22,0,0,0-.59,8.54,28.17,28.17,0,0,0,5.39,17,36,36,0,0,0,14.61,11.6,48.68,48.68,0,0,0,20.44,4.2h34.91a49.81,49.81,0,0,0,19.32-3.67,33,33,0,0,0,14.16-10.86q5.31-7.2,5.32-17.53v-82.84h-31.76Q2150.42,1676.63,2142.93,1680.75Zm20.52,58.5q-8.09,0-12.58-2a11,11,0,0,1-6.15-7.34q-1.65-5.4-1.64-15.73t1.64-15.73a11,11,0,0,1,6.15-7.34q4.49-2,12.58-2h17.83v50Z"/><rect class="cls-4" x="2169.89" y="1648.62" width="13.78" height="14.53"/><path class="cls-4" d="M2410.18,1700.75c-.51-3.9-1.1-8-1.8-12.29s-1.4-8.24-2.1-11.83l-13.63,2.25q1.35,6.43,2.32,12.65t1.5,11.09a75.25,75.25,0,0,1,.52,7.57v29.06h-21a12.83,12.83,0,0,1-5.54-1.28,25.25,25.25,0,0,1-3.54-2.11,62.28,62.28,0,0,0,2-17.29v-34.3H2354.9v34.3a62.09,62.09,0,0,1-1.05,13.19q-1,4.48-3.6,6c-1.7,1-4.24,1.5-7.64,1.5H2327v-47.49H2313.1v47.49h-34.45v-62.62h-31.76q-13,0-20.52,4a22.92,22.92,0,0,0-10.71,12.44q-3.22,8.39-3.23,21.27,0,12.73,3.23,21a22.55,22.55,0,0,0,10.71,12.28q7.49,4,20.52,4h17.83v4.2q0,8.53-5.47,13t-17.45,4.49q-3.75,0-9-.45t-13.18-1.34l-2.1,11.23q7,1.5,13,2.32a81.91,81.91,0,0,0,11.31.83,49.88,49.88,0,0,0,19.62-3.52,28,28,0,0,0,12.73-10.34,29.1,29.1,0,0,0,4.5-16.4v-4h64q9.45,0,15.13-3.15a15.51,15.51,0,0,0,2.43-1.65,28.49,28.49,0,0,0,15.85,4.8h34.9v-41.49A79.23,79.23,0,0,0,2410.18,1700.75Zm-163.29,38.5q-8.08,0-12.51-2a11.43,11.43,0,0,1-6.22-7.27q-1.78-5.31-1.79-15.65t1.79-16q1.8-5.48,6.3-7.34t12.43-1.88h17.83v50Z"/></svg>