<svg width="20" height="16" viewBox="0 0 20 16" fill="none" xmlns="http://www.w3.org/2000/svg">
<path fill-rule="evenodd" clip-rule="evenodd" d="M1.17157 1.17157C0 2.34315 0 4.22876 0 8C0 11.7712 0 13.6569 1.17157 14.8284C2.34315 16 4.22876 16 8 16H12C15.7712 16 17.6569 16 18.8284 14.8284C20 13.6569 20 11.7712 20 8C20 4.22876 20 2.34315 18.8284 1.17157C17.6569 0 15.7712 0 12 0H8C4.22876 0 2.34315 0 1.17157 1.17157ZM16.5762 3.51986C16.8413 3.83807 16.7983 4.31099 16.4801 4.57617L14.2837 6.40657C13.3973 7.14523 12.6789 7.74392 12.0448 8.15172C11.3843 8.57653 10.7411 8.84488 10 8.84488C9.25892 8.84488 8.61567 8.57653 7.95518 8.15172C7.32112 7.74392 6.60271 7.14523 5.71636 6.40658L3.51986 4.57617C3.20165 4.31099 3.15866 3.83807 3.42383 3.51986C3.68901 3.20165 4.16193 3.15866 4.48014 3.42383L6.63903 5.22291C7.57199 6.00038 8.21973 6.53841 8.76658 6.89013C9.29594 7.23059 9.65493 7.34487 10 7.34487C10.3451 7.34487 10.7041 7.23059 11.2334 6.89013C11.7803 6.53841 12.428 6.00038 13.361 5.22291L15.5199 3.42383C15.8381 3.15866 16.311 3.20165 16.5762 3.51986Z" fill="#8A8AA3"/>
</svg>
