<svg width="16" height="16" viewBox="0 0 16 16" fill="none" xmlns="http://www.w3.org/2000/svg">
<path fill-rule="evenodd" clip-rule="evenodd" d="M13.8333 4.66663C13.8333 4.94277 13.6095 5.16663 13.3333 5.16663L2.66665 5.16663C2.3905 5.16663 2.16665 4.94277 2.16665 4.66663C2.16665 4.39048 2.3905 4.16663 2.66665 4.16663L13.3333 4.16663C13.6095 4.16663 13.8333 4.39048 13.8333 4.66663Z" fill="#8A8AA3"/>
<path fill-rule="evenodd" clip-rule="evenodd" d="M13.8333 8C13.8333 8.27614 13.6095 8.5 13.3333 8.5L2.66665 8.5C2.3905 8.5 2.16665 8.27614 2.16665 8C2.16665 7.72386 2.3905 7.5 2.66665 7.5L13.3333 7.5C13.6095 7.5 13.8333 7.72386 13.8333 8Z" fill="#8A8AA3"/>
<path fill-rule="evenodd" clip-rule="evenodd" d="M13.8333 11.3334C13.8333 11.6095 13.6095 11.8334 13.3333 11.8334L2.66665 11.8334C2.3905 11.8334 2.16665 11.6095 2.16665 11.3334C2.16665 11.0572 2.3905 10.8334 2.66665 10.8334L13.3333 10.8334C13.6095 10.8334 13.8333 11.0572 13.8333 11.3334Z" fill="#8A8AA3"/>
</svg>
