<svg width="17" height="18" viewBox="0 0 17 18" fill="none" xmlns="http://www.w3.org/2000/svg">
<path fill-rule="evenodd" clip-rule="evenodd" d="M8.40417 0C4.83733 0 1.94583 2.89149 1.94583 6.45833V7.04509C1.94583 7.62585 1.77393 8.19363 1.45177 8.67685L0.494604 10.1126C-0.616309 11.779 0.23178 14.044 2.16394 14.5709C2.79362 14.7427 3.42861 14.8879 4.06728 15.0067L4.06886 15.011C4.70969 16.7209 6.42245 17.9167 8.40411 17.9167C10.3858 17.9167 12.0985 16.7209 12.7394 15.011L12.7409 15.0068C13.3796 14.888 14.0147 14.7427 14.6444 14.5709C16.5766 14.044 17.4246 11.779 16.3137 10.1126L15.3566 8.67686C15.0344 8.19363 14.8625 7.62585 14.8625 7.04509V6.45833C14.8625 2.89149 11.971 0 8.40417 0ZM11.2178 15.2391C9.34871 15.4625 7.4595 15.4625 5.59038 15.2391C6.18284 16.0904 7.21331 16.6667 8.40411 16.6667C9.59491 16.6667 10.6254 16.0904 11.2178 15.2391ZM3.19583 6.45833C3.19583 3.58185 5.52768 1.25 8.40417 1.25C11.2807 1.25 13.6125 3.58185 13.6125 6.45833V7.04509C13.6125 7.87263 13.8575 8.68167 14.3165 9.37023L15.2737 10.806C15.9113 11.7625 15.4245 13.0625 14.3155 13.365C10.4453 14.4205 6.36305 14.4205 2.49284 13.365C1.38381 13.0625 0.897022 11.7625 1.53467 10.806L2.49184 9.37023C2.95088 8.68167 3.19583 7.87263 3.19583 7.04509V6.45833Z" fill="#8A8AA3"/>
</svg>
