<svg width="16" height="16" viewBox="0 0 16 16" fill="none" xmlns="http://www.w3.org/2000/svg">
<path d="M5.61487 13.7456C6.78529 14.3598 7.3705 14.6669 8.00001 14.6669V8.00024L1.75869 4.71533C1.7495 4.7301 1.74047 4.74501 1.73161 4.76007C1.33334 5.4364 1.33334 6.27802 1.33334 7.96125V8.03923C1.33334 9.72246 1.33334 10.5641 1.73161 11.2404C2.12987 11.9167 2.84709 12.2931 4.28154 13.0459L5.61487 13.7456Z" fill="#2C7F99"/>
<path opacity="0.7" d="M11.7182 2.95451L10.3849 2.25481C9.2145 1.6406 8.62929 1.3335 7.99978 1.3335C7.37026 1.3335 6.78505 1.6406 5.61464 2.25481L4.28131 2.95451C2.8788 3.69051 2.16193 4.06671 1.75845 4.71526L7.99978 8.00016L14.2411 4.71526C13.8376 4.06671 13.1208 3.69051 11.7182 2.95451Z" fill="#2C7F99"/>
<path opacity="0.5" d="M14.2684 4.76007C14.2595 4.74501 14.2505 4.7301 14.2413 4.71533L8 8.00024V14.6669C8.62951 14.6669 9.21472 14.3598 10.3851 13.7456L11.7185 13.0459C13.1529 12.2931 13.8701 11.9167 14.2684 11.2404C14.6667 10.5641 14.6667 9.72246 14.6667 8.03923V7.96125C14.6667 6.27802 14.6667 5.4364 14.2684 4.76007Z" fill="#2C7F99"/>
<path d="M4.21557 2.98937C4.23746 2.97788 4.25952 2.96631 4.28175 2.95464L5.27743 2.43213L11.3446 5.76908L14.0271 4.42784C14.1189 4.53179 14.1987 4.64133 14.2686 4.76012C14.3683 4.92947 14.4431 5.10917 14.4991 5.30986L11.8336 6.64265V8.66696C11.8336 8.9431 11.6097 9.16696 11.3336 9.16696C11.0574 9.16696 10.8336 8.9431 10.8336 8.66696V7.14265L8.50022 8.30931V14.603C8.32895 14.6456 8.16612 14.667 8.00022 14.667C7.83432 14.667 7.67149 14.6456 7.50022 14.603V8.30931L1.50131 5.30986C1.55735 5.10917 1.6321 4.92947 1.73182 4.76012C1.80177 4.64133 1.88156 4.53179 1.97335 4.42784L8.00022 7.44128L10.2577 6.31254L4.21557 2.98937Z" fill="#2C7F99"/>
</svg>
