<svg width="91" height="91" viewBox="0 0 91 91" fill="none" xmlns="http://www.w3.org/2000/svg">
<path d="M45.1133 1C69.476 1.00017 89.2256 20.7505 89.2256 45.1133C89.2254 69.4759 69.4759 89.2254 45.1133 89.2256C20.7505 89.2256 1.00017 69.476 1 45.1133C1 20.7504 20.7504 1 45.1133 1Z" fill="url(#paint0_linear_59_5504)"/>
<path d="M45.1133 1C69.476 1.00017 89.2256 20.7505 89.2256 45.1133C89.2254 69.4759 69.4759 89.2254 45.1133 89.2256C20.7505 89.2256 1.00017 69.476 1 45.1133C1 20.7504 20.7504 1 45.1133 1Z" stroke="white" stroke-width="2"/>
<path d="M53.5464 29.3335H38.4537C36.449 29.3335 35.4467 29.3335 34.6412 29.8313C33.8357 30.3292 33.3874 31.2257 32.4909 33.0187L30.1515 38.9323C29.611 40.2986 29.1381 41.9089 30.0479 43.0626C30.6583 43.8366 31.6044 44.3335 32.6667 44.3335C34.5076 44.3335 36 42.8411 36 41.0002C36 42.8411 37.4924 44.3335 39.3333 44.3335C41.1743 44.3335 42.6667 42.8411 42.6667 41.0002C42.6667 42.8411 44.1591 44.3335 46 44.3335C47.841 44.3335 49.3333 42.8411 49.3333 41.0002C49.3333 42.8411 50.8257 44.3335 52.6667 44.3335C54.5076 44.3335 56 42.8411 56 41.0002C56 42.8411 57.4924 44.3335 59.3333 44.3335C60.3956 44.3335 61.3418 43.8366 61.9522 43.0626C62.862 41.9089 62.3891 40.2986 61.8486 38.9323L59.5093 33.0187C58.6128 31.2257 58.1645 30.3292 57.359 29.8313C56.5535 29.3335 55.5511 29.3335 53.5464 29.3335Z" fill="white"/>
<path d="M41.8333 61.4165V56.8332C41.8333 55.2755 41.8333 54.4966 42.1683 53.9165C42.3877 53.5365 42.7033 53.2209 43.0833 53.0014C43.6635 52.6665 44.4423 52.6665 46 52.6665C47.5577 52.6665 48.3366 52.6665 48.9167 53.0014C49.2967 53.2209 49.6123 53.5365 49.8317 53.9165C50.1667 54.4966 50.1667 55.2755 50.1667 56.8332V61.4165H41.8333Z" fill="white"/>
<path opacity="0.5" fill-rule="evenodd" clip-rule="evenodd" d="M32.6667 44.3333C34.5074 44.3331 35.9996 42.8408 35.9996 41C35.9996 42.8409 37.492 44.3333 39.333 44.3333C41.1739 44.3333 42.6663 42.8409 42.6663 41C42.6663 42.8409 44.1587 44.3333 45.9996 44.3333C47.8406 44.3333 49.333 42.8409 49.333 41C49.333 42.8409 50.8253 44.3333 52.6663 44.3333C54.5072 44.3333 55.9996 42.8409 55.9996 41C55.9996 42.8409 57.492 44.3333 59.333 44.3333L59.3333 61.4167L50.1667 61.4167V56.8333C50.1667 55.2756 50.1667 54.4968 49.8317 53.9167C49.6123 53.5366 49.2967 53.221 48.9167 53.0016C48.3365 52.6667 47.5577 52.6667 46 52.6667C44.4423 52.6667 43.6634 52.6667 43.0833 53.0016C42.7033 53.221 42.3877 53.5366 42.1683 53.9167C41.8333 54.4968 41.8333 55.2756 41.8333 56.8333V61.4167L32.6667 61.4167L32.6667 44.3333Z" fill="white"/>
<path d="M50.1667 61.4165H41.8333L32.6667 61.4165L29.3333 61.4165C28.643 61.4165 28.0833 61.9762 28.0833 62.6665C28.0833 63.3569 28.643 63.9165 29.3333 63.9165H62.6667C63.357 63.9165 63.9167 63.3569 63.9167 62.6665C63.9167 61.9762 63.357 61.4165 62.6667 61.4165L59.3333 61.4165L50.1667 61.4165Z" fill="white"/>
<defs>
<linearGradient id="paint0_linear_59_5504" x1="83.459" y1="2.36123e-07" x2="45.113" y2="84.5868" gradientUnits="userSpaceOnUse">
<stop offset="0.18614" stop-color="#2C7F99"/>
<stop offset="1" stop-color="#0F2A33"/>
</linearGradient>
</defs>
</svg>
