<svg width="21" height="21" viewBox="0 0 21 21" fill="none" xmlns="http://www.w3.org/2000/svg">
<path fill-rule="evenodd" clip-rule="evenodd" d="M15.698 1.06708e-06C14.7995 -2.73648e-05 14.0503 -5.10737e-05 13.4555 0.0799144C12.8277 0.164319 12.2609 0.34999 11.8055 0.80546C11.35 1.26093 11.1643 1.82773 11.0799 2.45552C10.9999 3.0503 11 3.79951 11 4.69798V4.802C11 5.70047 10.9999 6.44971 11.0799 7.04448C11.1643 7.67228 11.35 8.23908 11.8055 8.69455C12.2609 9.15002 12.8277 9.33569 13.4555 9.42009C14.0503 9.50006 14.7995 9.50003 15.698 9.5H15.802C16.7005 9.50003 17.4497 9.50006 18.0445 9.42009C18.6723 9.33569 19.2391 9.15002 19.6945 8.69455C20.15 8.23908 20.3357 7.67228 20.4201 7.04448C20.5001 6.4497 20.5 5.70048 20.5 4.802V4.69801C20.5 3.79953 20.5001 3.05031 20.4201 2.45552C20.3357 1.82773 20.15 1.26093 19.6945 0.80546C19.2391 0.34999 18.6723 0.164319 18.0445 0.0799144C17.4497 -5.10737e-05 16.7005 -2.73648e-05 15.802 1.06708e-06H15.698ZM12.8661 1.86612C12.9964 1.7358 13.1939 1.62858 13.6554 1.56654C14.1384 1.5016 14.786 1.5 15.75 1.5C16.714 1.5 17.3616 1.5016 17.8446 1.56654C18.3061 1.62858 18.5036 1.7358 18.6339 1.86612C18.7642 1.99644 18.8714 2.19393 18.9335 2.6554C18.9984 3.13843 19 3.78599 19 4.75C19 5.71401 18.9984 6.36157 18.9335 6.84461C18.8714 7.30607 18.7642 7.50357 18.6339 7.63389C18.5036 7.7642 18.3061 7.87143 17.8446 7.93347C17.3616 7.99841 16.714 8 15.75 8C14.786 8 14.1384 7.99841 13.6554 7.93347C13.1939 7.87143 12.9964 7.7642 12.8661 7.63389C12.7358 7.50357 12.6286 7.30607 12.5665 6.84461C12.5016 6.36157 12.5 5.71401 12.5 4.75C12.5 3.78599 12.5016 3.13843 12.5665 2.6554C12.6286 2.19393 12.7358 1.99644 12.8661 1.86612Z" fill="#8A8AA3"/>
<path fill-rule="evenodd" clip-rule="evenodd" d="M4.69801 11C3.79954 11 3.0503 10.9999 2.45552 11.0799C1.82773 11.1643 1.26093 11.35 0.80546 11.8055C0.34999 12.2609 0.164319 12.8277 0.0799144 13.4555C-5.10737e-05 14.0503 -2.73648e-05 14.7995 1.06708e-06 15.698V15.802C-2.73648e-05 16.7005 -5.10737e-05 17.4497 0.0799144 18.0445C0.164319 18.6723 0.34999 19.2391 0.80546 19.6945C1.26093 20.15 1.82773 20.3357 2.45552 20.4201C3.05031 20.5001 3.79953 20.5 4.69801 20.5H4.802C5.70048 20.5 6.4497 20.5001 7.04448 20.4201C7.67228 20.3357 8.23908 20.15 8.69455 19.6945C9.15002 19.2391 9.33569 18.6723 9.42009 18.0445C9.50006 17.4497 9.50003 16.7005 9.5 15.802V15.698C9.50003 14.7995 9.50006 14.0503 9.42009 13.4555C9.33569 12.8277 9.15002 12.2609 8.69455 11.8055C8.23908 11.35 7.67228 11.1643 7.04448 11.0799C6.44971 10.9999 5.7005 11 4.80203 11H4.69801ZM1.86612 12.8661C1.99644 12.7358 2.19393 12.6286 2.6554 12.5665C3.13843 12.5016 3.78599 12.5 4.75 12.5C5.71401 12.5 6.36157 12.5016 6.84461 12.5665C7.30607 12.6286 7.50357 12.7358 7.63389 12.8661C7.7642 12.9964 7.87143 13.1939 7.93347 13.6554C7.99841 14.1384 8 14.786 8 15.75C8 16.714 7.99841 17.3616 7.93347 17.8446C7.87143 18.3061 7.7642 18.5036 7.63389 18.6339C7.50357 18.7642 7.30607 18.8714 6.84461 18.9335C6.36157 18.9984 5.71401 19 4.75 19C3.78599 19 3.13843 18.9984 2.6554 18.9335C2.19393 18.8714 1.99644 18.7642 1.86612 18.6339C1.7358 18.5036 1.62858 18.3061 1.56654 17.8446C1.5016 17.3616 1.5 16.714 1.5 15.75C1.5 14.786 1.5016 14.1384 1.56654 13.6554C1.62858 13.1939 1.7358 12.9964 1.86612 12.8661Z" fill="#8A8AA3"/>
<path fill-rule="evenodd" clip-rule="evenodd" d="M3.15172e-06 4.75C3.15172e-06 2.12665 2.12665 3.15172e-06 4.75 3.15172e-06C7.37336 3.15172e-06 9.5 2.12665 9.5 4.75C9.5 7.37336 7.37336 9.5 4.75 9.5C2.12665 9.5 3.15172e-06 7.37336 3.15172e-06 4.75ZM4.75 1.5C2.95508 1.5 1.5 2.95508 1.5 4.75C1.5 6.54493 2.95508 8 4.75 8C6.54493 8 8 6.54493 8 4.75C8 2.95508 6.54493 1.5 4.75 1.5Z" fill="#8A8AA3"/>
<path fill-rule="evenodd" clip-rule="evenodd" d="M11 15.75C11 13.1267 13.1267 11 15.75 11C18.3734 11 20.5 13.1267 20.5 15.75C20.5 18.3734 18.3734 20.5 15.75 20.5C13.1267 20.5 11 18.3734 11 15.75ZM15.75 12.5C13.9551 12.5 12.5 13.9551 12.5 15.75C12.5 17.5449 13.9551 19 15.75 19C17.5449 19 19 17.5449 19 15.75C19 13.9551 17.5449 12.5 15.75 12.5Z" fill="#8A8AA3"/>
</svg>
