<svg width="18" height="22" viewBox="0 0 18 22" fill="none" xmlns="http://www.w3.org/2000/svg">
<path fill-rule="evenodd" clip-rule="evenodd" d="M8.75013 0C6.12678 0 4.00013 2.12665 4.00013 4.75C4.00013 7.37335 6.12678 9.5 8.75013 9.5C11.3735 9.5 13.5001 7.37335 13.5001 4.75C13.5001 2.12665 11.3735 0 8.75013 0ZM5.50013 4.75C5.50013 2.95507 6.95521 1.5 8.75013 1.5C10.5451 1.5 12.0001 2.95507 12.0001 4.75C12.0001 6.54493 10.5451 8 8.75013 8C6.95521 8 5.50013 6.54493 5.50013 4.75Z" fill="#8A8AA3"/>
<path fill-rule="evenodd" clip-rule="evenodd" d="M8.75013 11C6.43658 11 4.30506 11.5259 2.72558 12.4143C1.16962 13.2896 0.000134216 14.6161 0.000134216 16.25L6.78762e-05 16.352C-0.00106187 17.5138 -0.00247979 18.972 1.27655 20.0135C1.90602 20.5261 2.78661 20.8906 3.97634 21.1315C5.1694 21.3729 6.72436 21.5 8.75013 21.5C10.7759 21.5 12.3309 21.3729 13.5239 21.1315C14.7137 20.8906 15.5943 20.5261 16.2237 20.0135C17.5027 18.972 17.5013 17.5138 17.5002 16.352L17.5001 16.25C17.5001 14.6161 16.3307 13.2896 14.7747 12.4143C13.1952 11.5259 11.0637 11 8.75013 11ZM1.50013 16.25C1.50013 15.3987 2.12151 14.4751 3.46098 13.7217C4.77693 12.9815 6.64541 12.5 8.75013 12.5C10.8549 12.5 12.7233 12.9815 14.0393 13.7217C15.3788 14.4751 16.0001 15.3987 16.0001 16.25C16.0001 17.5578 15.9598 18.294 15.2765 18.8504C14.906 19.1522 14.2866 19.4467 13.2263 19.6613C12.1694 19.8752 10.7244 20 8.75013 20C6.77591 20 5.33087 19.8752 4.27393 19.6613C3.21366 19.4467 2.59425 19.1522 2.22372 18.8504C1.54045 18.294 1.50013 17.5578 1.50013 16.25Z" fill="#8A8AA3"/>
</svg>
